<?xml version="1.0" encoding="UTF-8" standalone="no"?>
<svg
   id="svg2697"
   version="1.1"
   viewBox="0 0 284.46392 141.77361"
   height="141.77361mm"
   width="284.46393mm"
   sodipodi:docname="03_rodsandcones.svg"
   inkscape:version="1.2 (dc2aedaf03, 2022-05-15)"
   xml:space="preserve"
   xmlns:inkscape="http://www.inkscape.org/namespaces/inkscape"
   xmlns:sodipodi="http://sodipodi.sourceforge.net/DTD/sodipodi-0.dtd"
   xmlns="http://www.w3.org/2000/svg"
   xmlns:svg="http://www.w3.org/2000/svg"
   xmlns:rdf="http://www.w3.org/1999/02/22-rdf-syntax-ns#"
   xmlns:cc="http://creativecommons.org/ns#"
   xmlns:dc="http://purl.org/dc/elements/1.1/"><sodipodi:namedview
     id="namedview49"
     pagecolor="#ffffff"
     bordercolor="#000000"
     borderopacity="0.25"
     inkscape:showpageshadow="2"
     inkscape:pageopacity="0.0"
     inkscape:pagecheckerboard="0"
     inkscape:deskcolor="#d1d1d1"
     inkscape:document-units="mm"
     showgrid="false"
     inkscape:zoom="0.7455148"
     inkscape:cx="325.27859"
     inkscape:cy="426.55089"
     inkscape:window-width="2560"
     inkscape:window-height="1369"
     inkscape:window-x="-8"
     inkscape:window-y="-8"
     inkscape:window-maximized="1"
     inkscape:current-layer="svg2697" /><defs
     id="defs2691"><marker
       style="overflow:visible"
       id="marker2085-2-7-4-0"
       refX="0"
       refY="0"
       orient="auto"><path
         transform="matrix(-1.1,0,0,-1.1,-1.1,0)"
         d="M 8.7185878,4.0337352 -2.2072895,0.01601326 8.7185884,-4.0017078 c -1.7454984,2.3720609 -1.7354408,5.6174519 -6e-7,8.035443 z"
         style="fill:#000000;fill-opacity:1;fill-rule:evenodd;stroke:#000000;stroke-width:0.625;stroke-linejoin:round;stroke-opacity:1"
         id="path1843-6-4-9-2" /></marker><marker
       style="overflow:visible"
       id="marker2085-2-7-43"
       refX="0"
       refY="0"
       orient="auto"><path
         transform="matrix(-1.1,0,0,-1.1,-1.1,0)"
         d="M 8.7185878,4.0337352 -2.2072895,0.01601326 8.7185884,-4.0017078 c -1.7454984,2.3720609 -1.7354408,5.6174519 -6e-7,8.035443 z"
         style="fill:#000000;fill-opacity:1;fill-rule:evenodd;stroke:#000000;stroke-width:0.625;stroke-linejoin:round;stroke-opacity:1"
         id="path1843-6-4-2" /></marker><marker
       style="overflow:visible"
       id="marker2085-2-7-4-0-9"
       refX="0"
       refY="0"
       orient="auto"><path
         transform="matrix(-1.1,0,0,-1.1,-1.1,0)"
         d="M 8.7185878,4.0337352 -2.2072895,0.01601326 8.7185884,-4.0017078 c -1.7454984,2.3720609 -1.7354408,5.6174519 -6e-7,8.035443 z"
         style="fill:#000000;fill-opacity:1;fill-rule:evenodd;stroke:#000000;stroke-width:0.625;stroke-linejoin:round;stroke-opacity:1"
         id="path1843-6-4-9-2-6" /></marker><marker
       style="overflow:visible"
       id="marker2085-7-5-1-7-7"
       refX="0"
       refY="0"
       orient="auto"><path
         transform="matrix(-1.1,0,0,-1.1,-1.1,0)"
         d="M 8.7185878,4.0337352 -2.2072895,0.01601326 8.7185884,-4.0017078 c -1.7454984,2.3720609 -1.7354408,5.6174519 -6e-7,8.035443 z"
         style="fill:#000000;fill-opacity:1;fill-rule:evenodd;stroke:#000000;stroke-width:0.625;stroke-linejoin:round;stroke-opacity:1"
         id="path1843-0-4-1-1-4" /></marker><marker
       style="overflow:visible"
       id="marker2085-2-7-43-2"
       refX="0"
       refY="0"
       orient="auto"><path
         transform="matrix(-1.1,0,0,-1.1,-1.1,0)"
         d="M 8.7185878,4.0337352 -2.2072895,0.01601326 8.7185884,-4.0017078 c -1.7454984,2.3720609 -1.7354408,5.6174519 -6e-7,8.035443 z"
         style="fill:#000000;fill-opacity:1;fill-rule:evenodd;stroke:#000000;stroke-width:0.625;stroke-linejoin:round;stroke-opacity:1"
         id="path1843-6-4-2-8" /></marker><marker
       style="overflow:visible"
       id="marker2085-7-58"
       refX="0"
       refY="0"
       orient="auto"><path
         transform="matrix(-1.1,0,0,-1.1,-1.1,0)"
         d="M 8.7185878,4.0337352 -2.2072895,0.01601326 8.7185884,-4.0017078 c -1.7454984,2.3720609 -1.7354408,5.6174519 -6e-7,8.035443 z"
         style="fill:#000000;fill-opacity:1;fill-rule:evenodd;stroke:#000000;stroke-width:0.625;stroke-linejoin:round;stroke-opacity:1"
         id="path1843-0-9" /></marker><marker
       style="overflow:visible"
       id="marker2085-70"
       refX="0"
       refY="0"
       orient="auto"><path
         transform="matrix(-1.1,0,0,-1.1,-1.1,0)"
         d="M 8.7185878,4.0337352 -2.2072895,0.01601326 8.7185884,-4.0017078 c -1.7454984,2.3720609 -1.7354408,5.6174519 -6e-7,8.035443 z"
         style="fill:#000000;fill-opacity:1;fill-rule:evenodd;stroke:#000000;stroke-width:0.625;stroke-linejoin:round;stroke-opacity:1"
         id="path1843-4" /></marker><marker
       style="overflow:visible"
       id="marker2085-7"
       refX="0"
       refY="0"
       orient="auto"><path
         transform="matrix(-1.1,0,0,-1.1,-1.1,0)"
         d="M 8.7185878,4.0337352 -2.2072895,0.01601326 8.7185884,-4.0017078 c -1.7454984,2.3720609 -1.7354408,5.6174519 -6e-7,8.035443 z"
         style="fill:#000000;fill-opacity:1;fill-rule:evenodd;stroke:#000000;stroke-width:0.625;stroke-linejoin:round;stroke-opacity:1"
         id="path1843-0" /></marker><marker
       style="overflow:visible"
       id="marker2085"
       refX="0"
       refY="0"
       orient="auto"><path
         transform="matrix(-1.1,0,0,-1.1,-1.1,0)"
         d="M 8.7185878,4.0337352 -2.2072895,0.01601326 8.7185884,-4.0017078 c -1.7454984,2.3720609 -1.7354408,5.6174519 -6e-7,8.035443 z"
         style="fill:#000000;fill-opacity:1;fill-rule:evenodd;stroke:#000000;stroke-width:0.625;stroke-linejoin:round;stroke-opacity:1"
         id="path1843" /></marker><marker
       style="overflow:visible"
       id="marker2085-2-7-43-2-4"
       refX="0"
       refY="0"
       orient="auto"><path
         transform="matrix(-1.1,0,0,-1.1,-1.1,0)"
         d="M 8.7185878,4.0337352 -2.2072895,0.01601326 8.7185884,-4.0017078 c -1.7454984,2.3720609 -1.7354408,5.6174519 -6e-7,8.035443 z"
         style="fill:#000000;fill-opacity:1;fill-rule:evenodd;stroke:#000000;stroke-width:0.625;stroke-linejoin:round;stroke-opacity:1"
         id="path1843-6-4-2-8-3" /></marker><marker
       style="overflow:visible"
       id="marker2085-2-7-43-2-7"
       refX="0"
       refY="0"
       orient="auto"><path
         transform="matrix(-1.1,0,0,-1.1,-1.1,0)"
         d="M 8.7185878,4.0337352 -2.2072895,0.01601326 8.7185884,-4.0017078 c -1.7454984,2.3720609 -1.7354408,5.6174519 -6e-7,8.035443 z"
         style="fill:#000000;fill-opacity:1;fill-rule:evenodd;stroke:#000000;stroke-width:0.625;stroke-linejoin:round;stroke-opacity:1"
         id="path1843-6-4-2-8-9" /></marker><marker
       style="overflow:visible"
       id="marker2085-7-5-1-7-7-2"
       refX="0"
       refY="0"
       orient="auto"><path
         transform="matrix(-1.1,0,0,-1.1,-1.1,0)"
         d="M 8.7185878,4.0337352 -2.2072895,0.01601326 8.7185884,-4.0017078 c -1.7454984,2.3720609 -1.7354408,5.6174519 -6e-7,8.035443 z"
         style="fill:#000000;fill-opacity:1;fill-rule:evenodd;stroke:#000000;stroke-width:0.625;stroke-linejoin:round;stroke-opacity:1"
         id="path1843-0-4-1-1-4-1" /></marker><marker
       style="overflow:visible"
       id="marker2085-2-7-43-2-4-2"
       refX="0"
       refY="0"
       orient="auto"><path
         transform="matrix(-1.1,0,0,-1.1,-1.1,0)"
         d="M 8.7185878,4.0337352 -2.2072895,0.01601326 8.7185884,-4.0017078 c -1.7454984,2.3720609 -1.7354408,5.6174519 -6e-7,8.035443 z"
         style="fill:#000000;fill-opacity:1;fill-rule:evenodd;stroke:#000000;stroke-width:0.625;stroke-linejoin:round;stroke-opacity:1"
         id="path1843-6-4-2-8-3-7" /></marker><marker
       style="overflow:visible"
       id="marker2085-2-7-43-2-6"
       refX="0"
       refY="0"
       orient="auto"><path
         transform="matrix(-1.1,0,0,-1.1,-1.1,0)"
         d="M 8.7185878,4.0337352 -2.2072895,0.01601326 8.7185884,-4.0017078 c -1.7454984,2.3720609 -1.7354408,5.6174519 -6e-7,8.035443 z"
         style="fill:#000000;fill-opacity:1;fill-rule:evenodd;stroke:#000000;stroke-width:0.625;stroke-linejoin:round;stroke-opacity:1"
         id="path1843-6-4-2-8-7" /></marker><marker
       style="overflow:visible"
       id="marker2085-7-5-1-7-7-2-1"
       refX="0"
       refY="0"
       orient="auto"><path
         transform="matrix(-1.1,0,0,-1.1,-1.1,0)"
         d="M 8.7185878,4.0337352 -2.2072895,0.01601326 8.7185884,-4.0017078 c -1.7454984,2.3720609 -1.7354408,5.6174519 -6e-7,8.035443 z"
         style="fill:#000000;fill-opacity:1;fill-rule:evenodd;stroke:#000000;stroke-width:0.625;stroke-linejoin:round;stroke-opacity:1"
         id="path1843-0-4-1-1-4-1-1" /></marker><marker
       style="overflow:visible"
       id="marker2085-7-5-1-7-7-2-1-2"
       refX="0"
       refY="0"
       orient="auto"><path
         transform="matrix(-1.1,0,0,-1.1,-1.1,0)"
         d="M 8.7185878,4.0337352 -2.2072895,0.01601326 8.7185884,-4.0017078 c -1.7454984,2.3720609 -1.7354408,5.6174519 -6e-7,8.035443 z"
         style="fill:#000000;fill-opacity:1;fill-rule:evenodd;stroke:#000000;stroke-width:0.625;stroke-linejoin:round;stroke-opacity:1"
         id="path1843-0-4-1-1-4-1-1-9" /></marker><marker
       style="overflow:visible"
       id="marker2085-7-5-1-7-7-2-1-2-1"
       refX="0"
       refY="0"
       orient="auto"><path
         transform="matrix(-1.1,0,0,-1.1,-1.1,0)"
         d="M 8.7185878,4.0337352 -2.2072895,0.01601326 8.7185884,-4.0017078 c -1.7454984,2.3720609 -1.7354408,5.6174519 -6e-7,8.035443 z"
         style="fill:#000000;fill-opacity:1;fill-rule:evenodd;stroke:#000000;stroke-width:0.625;stroke-linejoin:round;stroke-opacity:1"
         id="path1843-0-4-1-1-4-1-1-9-9" /></marker><marker
       style="overflow:visible"
       id="marker2085-7-5-1-7-7-2-1-2-7"
       refX="0"
       refY="0"
       orient="auto"><path
         transform="matrix(-1.1,0,0,-1.1,-1.1,0)"
         d="M 8.7185878,4.0337352 -2.2072895,0.01601326 8.7185884,-4.0017078 c -1.7454984,2.3720609 -1.7354408,5.6174519 -6e-7,8.035443 z"
         style="fill:#000000;fill-opacity:1;fill-rule:evenodd;stroke:#000000;stroke-width:0.625;stroke-linejoin:round;stroke-opacity:1"
         id="path1843-0-4-1-1-4-1-1-9-95" /></marker><marker
       style="overflow:visible"
       id="marker2085-7-5-1-7-7-2-1-2-6"
       refX="0"
       refY="0"
       orient="auto"><path
         transform="matrix(-1.1,0,0,-1.1,-1.1,0)"
         d="M 8.7185878,4.0337352 -2.2072895,0.01601326 8.7185884,-4.0017078 c -1.7454984,2.3720609 -1.7354408,5.6174519 -6e-7,8.035443 z"
         style="fill:#000000;fill-opacity:1;fill-rule:evenodd;stroke:#000000;stroke-width:0.625;stroke-linejoin:round;stroke-opacity:1"
         id="path1843-0-4-1-1-4-1-1-9-8" /></marker><marker
       style="overflow:visible"
       id="marker2085-7-5-1-7-7-2-1-2-6-1"
       refX="0"
       refY="0"
       orient="auto"><path
         transform="matrix(-1.1,0,0,-1.1,-1.1,0)"
         d="M 8.7185878,4.0337352 -2.2072895,0.01601326 8.7185884,-4.0017078 c -1.7454984,2.3720609 -1.7354408,5.6174519 -6e-7,8.035443 z"
         style="fill:#000000;fill-opacity:1;fill-rule:evenodd;stroke:#000000;stroke-width:0.625;stroke-linejoin:round;stroke-opacity:1"
         id="path1843-0-4-1-1-4-1-1-9-8-9" /></marker><marker
       style="overflow:visible"
       id="marker2085-7-5-1-7-7-2-1-2-6-2"
       refX="0"
       refY="0"
       orient="auto"><path
         transform="matrix(-1.1,0,0,-1.1,-1.1,0)"
         d="M 8.7185878,4.0337352 -2.2072895,0.01601326 8.7185884,-4.0017078 c -1.7454984,2.3720609 -1.7354408,5.6174519 -6e-7,8.035443 z"
         style="fill:#000000;fill-opacity:1;fill-rule:evenodd;stroke:#000000;stroke-width:0.625;stroke-linejoin:round;stroke-opacity:1"
         id="path1843-0-4-1-1-4-1-1-9-8-0" /></marker><marker
       style="overflow:visible"
       id="marker2085-7-5-1-7-7-2-1-6"
       refX="0"
       refY="0"
       orient="auto"><path
         transform="matrix(-1.1,0,0,-1.1,-1.1,0)"
         d="M 8.7185878,4.0337352 -2.2072895,0.01601326 8.7185884,-4.0017078 c -1.7454984,2.3720609 -1.7354408,5.6174519 -6e-7,8.035443 z"
         style="fill:#000000;fill-opacity:1;fill-rule:evenodd;stroke:#000000;stroke-width:0.625;stroke-linejoin:round;stroke-opacity:1"
         id="path1843-0-4-1-1-4-1-1-3" /></marker><marker
       style="overflow:visible"
       id="marker2085-7-5-1-7-7-2-1-2-6-7"
       refX="0"
       refY="0"
       orient="auto"><path
         transform="matrix(-1.1,0,0,-1.1,-1.1,0)"
         d="M 8.7185878,4.0337352 -2.2072895,0.01601326 8.7185884,-4.0017078 c -1.7454984,2.3720609 -1.7354408,5.6174519 -6e-7,8.035443 z"
         style="fill:#000000;fill-opacity:1;fill-rule:evenodd;stroke:#000000;stroke-width:0.625;stroke-linejoin:round;stroke-opacity:1"
         id="path1843-0-4-1-1-4-1-1-9-8-6" /></marker><marker
       style="overflow:visible"
       id="marker2085-7-5-1-7-7-2-1-2-6-25"
       refX="0"
       refY="0"
       orient="auto"><path
         transform="matrix(-1.1,0,0,-1.1,-1.1,0)"
         d="M 8.7185878,4.0337352 -2.2072895,0.01601326 8.7185884,-4.0017078 c -1.7454984,2.3720609 -1.7354408,5.6174519 -6e-7,8.035443 z"
         style="fill:#000000;fill-opacity:1;fill-rule:evenodd;stroke:#000000;stroke-width:0.625;stroke-linejoin:round;stroke-opacity:1"
         id="path1843-0-4-1-1-4-1-1-9-8-67" /></marker><marker
       style="overflow:visible"
       id="marker2085-7-5-1-7-7-2-1-2-6-7-9"
       refX="0"
       refY="0"
       orient="auto"><path
         transform="matrix(-1.1,0,0,-1.1,-1.1,0)"
         d="M 8.7185878,4.0337352 -2.2072895,0.01601326 8.7185884,-4.0017078 c -1.7454984,2.3720609 -1.7354408,5.6174519 -6e-7,8.035443 z"
         style="fill:#000000;fill-opacity:1;fill-rule:evenodd;stroke:#000000;stroke-width:0.625;stroke-linejoin:round;stroke-opacity:1"
         id="path1843-0-4-1-1-4-1-1-9-8-6-3" /></marker><clipPath
       clipPathUnits="userSpaceOnUse"
       id="clipPath2658"><rect
         style="fill:#cccccc;stroke:#000000;stroke-width:0.35269;stroke-linecap:round;stroke-linejoin:round"
         id="rect2660"
         width="221.5909"
         height="79.348419"
         x="-142.04803"
         y="-124.28169"
         transform="rotate(90)" /></clipPath></defs><metadata
     id="metadata2694"><rdf:RDF><cc:Work
         rdf:about=""><dc:format>image/svg+xml</dc:format><dc:type
           rdf:resource="http://purl.org/dc/dcmitype/StillImage" /></cc:Work></rdf:RDF></metadata><rect
     ry="2"
     rx="2"
     y="0"
     x="0"
     height="284.46393"
     width="141.77361"
     id="rect3064-46"
     style="fill:#ffffff;fill-opacity:1;fill-rule:nonzero;stroke:none;stroke-width:0.25;stroke-linecap:round;stroke-linejoin:bevel;stroke-miterlimit:4;stroke-dasharray:none;stroke-dashoffset:0;stroke-opacity:1"
     transform="matrix(0,1,1,0,0,0)" /><text
     id="text1737-3-7-6-0-3-2-73-3-2-2-2-4-2-5-3-2"
     y="92.91243"
     x="106.80698"
     style="font-style:normal;font-variant:normal;font-weight:bold;font-stretch:normal;font-size:7.05556px;line-height:0;font-family:'Liberation Sans';-inkscape-font-specification:'Liberation Sans Bold';text-align:center;letter-spacing:0px;word-spacing:0px;text-anchor:middle;fill:#000000;fill-opacity:1;stroke:none;stroke-width:0.264583px;stroke-linecap:butt;stroke-linejoin:miter;stroke-opacity:1"
     xml:space="preserve"><tspan
       sodipodi:role="line"
       x="106.80698"
       y="92.91243"
       style="font-size:7.05556px;line-height:100%"
       id="tspan38350-4-7">80º</tspan></text><path
     style="fill:none;stroke:#000000;stroke-width:0.499999;stroke-linecap:round;stroke-linejoin:round;stroke-dasharray:none;stroke-dashoffset:0"
     d="m 158.38536,39.780239 h 0.9348"
     id="path63969-5-0-3-0-9"
     sodipodi:nodetypes="cc" /><path
     style="fill:none;stroke:#000000;stroke-width:0.499999;stroke-linecap:round;stroke-linejoin:round;stroke-dasharray:none;stroke-dashoffset:0"
     d="m 158.38536,29.066024 h 0.9348"
     id="path63969-56-3-2-1"
     sodipodi:nodetypes="cc" /><path
     style="fill:none;stroke:#000000;stroke-width:0.499999;stroke-linecap:round;stroke-linejoin:round;stroke-dasharray:none;stroke-dashoffset:0"
     d="m 158.38536,71.916193 h 0.9348"
     id="path63969-3-0-5-9"
     sodipodi:nodetypes="cc" /><path
     style="fill:none;stroke:#000000;stroke-width:0.499999;stroke-linecap:round;stroke-linejoin:round;stroke-dasharray:none;stroke-dashoffset:0"
     d="m 158.38536,61.171895 h 0.9348"
     id="path63969-5-0-3-0"
     sodipodi:nodetypes="cc" /><path
     style="fill:none;stroke:#000000;stroke-width:0.499999;stroke-linecap:round;stroke-linejoin:round;stroke-dasharray:none;stroke-dashoffset:0"
     d="m 158.38536,50.45768 h 0.9348"
     id="path63969-56-3-2"
     sodipodi:nodetypes="cc" /><path
     style="fill:none;stroke:#000000;stroke-width:0.499999;stroke-linecap:round;stroke-linejoin:round;stroke-dasharray:none;stroke-dashoffset:0"
     d="m 215.25946,114.25262 v -0.9348"
     id="path63969-5-5"
     sodipodi:nodetypes="cc" /><path
     style="fill:none;stroke:#000000;stroke-width:0.499999;stroke-linecap:round;stroke-linejoin:round;stroke-dasharray:none;stroke-dashoffset:0"
     d="m 198.89696,114.25262 v -0.9348"
     id="path63969-3"
     sodipodi:nodetypes="cc" /><path
     style="fill:none;stroke:#000000;stroke-width:0.499999;stroke-linecap:round;stroke-linejoin:round;stroke-dasharray:none;stroke-dashoffset:0"
     d="m 182.70825,114.25262 v -0.9348"
     id="path63969-5"
     sodipodi:nodetypes="cc" /><text
     id="text1737-3-7-6-0-3-2-73-3-2-2-2-4-2-5-6-0-9"
     y="11.987556"
     x="227.75891"
     style="font-style:normal;font-variant:normal;font-weight:bold;font-stretch:normal;font-size:7.05556px;line-height:0;font-family:'Liberation Sans';-inkscape-font-specification:'Liberation Sans Bold';text-align:center;letter-spacing:0px;word-spacing:0px;text-anchor:middle;fill:#000000;fill-opacity:1;stroke:none;stroke-width:0.264583px;stroke-linecap:butt;stroke-linejoin:miter;stroke-opacity:1"
     xml:space="preserve"><tspan
       sodipodi:role="line"
       x="227.75891"
       y="11.987556"
       style="font-size:7.05556px;line-height:100%"
       id="tspan38350-5-7-2">Ponto cego</tspan></text><text
     id="text1737-3-7-6-0-3-2-73-3-2-2-2-4-2-5-8"
     y="123.17912"
     x="73.299026"
     style="font-style:normal;font-variant:normal;font-weight:bold;font-stretch:normal;font-size:7.05556px;line-height:0;font-family:'Liberation Sans';-inkscape-font-specification:'Liberation Sans Bold';text-align:center;letter-spacing:0px;word-spacing:0px;text-anchor:middle;fill:#000000;fill-opacity:1;stroke:none;stroke-width:0.264583px;stroke-linecap:butt;stroke-linejoin:miter;stroke-opacity:1"
     xml:space="preserve"><tspan
       sodipodi:role="line"
       x="73.299026"
       y="123.17912"
       style="font-size:7.05556px;line-height:100%"
       id="tspan38350-2">20º</tspan></text><path
     style="fill:none;stroke:#000000;stroke-width:0.499999;stroke-linecap:round;stroke-linejoin:round;stroke-dasharray:0.499999, 1.5;stroke-dashoffset:0"
     d="m 99.365277,57.2362 c 7.600943,33.531744 -15.891283,53.37887 -33.7694,55.90753"
     id="path18949-9"
     sodipodi:nodetypes="cc" /><path
     style="fill:none;stroke:#000000;stroke-width:0.499999;stroke-linecap:round;stroke-linejoin:round;stroke-dasharray:none;stroke-dashoffset:0"
     d="M 79.558131,30.58868 C 60.866721,18.2559 53.329381,16.56071 35.19561,31.12102"
     id="path9052"
     sodipodi:nodetypes="cc" /><path
     id="path9190"
     style="fill:none;stroke:#000000;stroke-width:0.499999;stroke-linecap:round;stroke-linejoin:round"
     d="m 58.485931,44.1636 c 9.04078,0 16.4585,-2.76356 16.4585,-7.71271 0,-4.94915 -7.329,-8.03599 -16.36978,-8.03599 -9.04078,0 -16.591575,3.04248 -16.591574,7.99163 -1e-6,4.94915 7.462074,7.75707 16.502854,7.75707 z"
     sodipodi:nodetypes="sssss" /><path
     style="fill:none;stroke:#000000;stroke-width:0.499999;stroke-linecap:round;stroke-linejoin:round;stroke-dasharray:none;stroke-dashoffset:0"
     d="m 28.164962,38.87635 c 4.313673,-3.24543 10.529586,-4.1197 13.959223,-0.98815"
     id="path18301"
     sodipodi:nodetypes="cc" /><path
     style="fill:none;stroke:#000000;stroke-width:0.499999;stroke-linecap:round;stroke-linejoin:round;stroke-dasharray:0.499999, 1.5;stroke-dashoffset:0"
     d="m 18.870202,51.1729 c -15.6749152,42.315524 18.720984,59.35705 30.698849,61.84135 3.96025,3.45283 5.01448,1.73073 6.74311,0.70979 0.71959,-0.31187 4.104178,0.32895 6.387288,-0.32129"
     id="path18949"
     sodipodi:nodetypes="cccc" /><path
     style="fill:none;stroke:#000000;stroke-width:0.499999;stroke-linecap:round;stroke-linejoin:round;stroke-dasharray:none;stroke-dashoffset:0"
     d="M 88.356629,39.53165 C 84.042938,36.28622 77.849201,35.45631 74.419561,38.58786"
     id="path18301-9"
     sodipodi:nodetypes="cc" /><text
     id="text1737-3-7-6-0-3-2-73-3-2-2-2-4-2-5"
     y="125.35589"
     x="52.956326"
     style="font-style:normal;font-variant:normal;font-weight:bold;font-stretch:normal;font-size:7.05556px;line-height:0;font-family:'Liberation Sans';-inkscape-font-specification:'Liberation Sans Bold';text-align:center;letter-spacing:0px;word-spacing:0px;text-anchor:middle;fill:#000000;fill-opacity:1;stroke:none;stroke-width:0.264583px;stroke-linecap:butt;stroke-linejoin:miter;stroke-opacity:1"
     xml:space="preserve"><tspan
       sodipodi:role="line"
       x="52.956326"
       y="125.35589"
       style="font-size:7.05556px;line-height:100%"
       id="tspan38350">0º</tspan></text><text
     id="text1737-3-7-6-0-3-2-73-3-2-2-2-4-2-5-6"
     y="116.54989"
     x="86.911491"
     style="font-style:normal;font-variant:normal;font-weight:bold;font-stretch:normal;font-size:7.05556px;line-height:0;font-family:'Liberation Sans';-inkscape-font-specification:'Liberation Sans Bold';text-align:center;letter-spacing:0px;word-spacing:0px;text-anchor:middle;fill:#000000;fill-opacity:1;stroke:none;stroke-width:0.264583px;stroke-linecap:butt;stroke-linejoin:miter;stroke-opacity:1"
     xml:space="preserve"><tspan
       sodipodi:role="line"
       x="86.911491"
       y="116.54989"
       style="font-size:7.05556px;line-height:100%"
       id="tspan38350-5">40º</tspan></text><text
     id="text1737-3-7-6-0-3-2-73-3-2-2-2-4-2-5-3"
     y="105.63589"
     x="98.669456"
     style="font-style:normal;font-variant:normal;font-weight:bold;font-stretch:normal;font-size:7.05556px;line-height:0;font-family:'Liberation Sans';-inkscape-font-specification:'Liberation Sans Bold';text-align:center;letter-spacing:0px;word-spacing:0px;text-anchor:middle;fill:#000000;fill-opacity:1;stroke:none;stroke-width:0.264583px;stroke-linecap:butt;stroke-linejoin:miter;stroke-opacity:1"
     xml:space="preserve"><tspan
       sodipodi:role="line"
       x="98.669456"
       y="105.63589"
       style="font-size:7.05556px;line-height:100%"
       id="tspan38350-4">60º</tspan></text><text
     id="text1737-3-7-6-0-3-2-73-3-2-2-2-4-2-5-0"
     y="119.05113"
     x="33.799992"
     style="font-style:normal;font-variant:normal;font-weight:bold;font-stretch:normal;font-size:7.05556px;line-height:0;font-family:'Liberation Sans';-inkscape-font-specification:'Liberation Sans Bold';text-align:center;letter-spacing:0px;word-spacing:0px;text-anchor:middle;fill:#000000;fill-opacity:1;stroke:none;stroke-width:0.264583px;stroke-linecap:butt;stroke-linejoin:miter;stroke-opacity:1"
     xml:space="preserve"><tspan
       sodipodi:role="line"
       x="33.799992"
       y="119.05113"
       style="font-size:7.05556px;line-height:100%"
       id="tspan38350-45">-20º</tspan></text><text
     id="text1737-3-7-6-0-3-2-73-3-2-2-2-4-2-5-30"
     y="110.04156"
     x="20.452389"
     style="font-style:normal;font-variant:normal;font-weight:bold;font-stretch:normal;font-size:7.05556px;line-height:0;font-family:'Liberation Sans';-inkscape-font-specification:'Liberation Sans Bold';text-align:center;letter-spacing:0px;word-spacing:0px;text-anchor:middle;fill:#000000;fill-opacity:1;stroke:none;stroke-width:0.264583px;stroke-linecap:butt;stroke-linejoin:miter;stroke-opacity:1"
     xml:space="preserve"><tspan
       sodipodi:role="line"
       x="20.452389"
       y="110.04156"
       style="font-size:7.05556px;line-height:100%"
       id="tspan38350-48">-40º</tspan></text><text
     id="text1737-3-7-6-0-3-2-73-3-2-2-2-4-2-5-4"
     y="97.335968"
     x="12.069183"
     style="font-style:normal;font-variant:normal;font-weight:bold;font-stretch:normal;font-size:7.05556px;line-height:0;font-family:'Liberation Sans';-inkscape-font-specification:'Liberation Sans Bold';text-align:center;letter-spacing:0px;word-spacing:0px;text-anchor:middle;fill:#000000;fill-opacity:1;stroke:none;stroke-width:0.264583px;stroke-linecap:butt;stroke-linejoin:miter;stroke-opacity:1"
     xml:space="preserve"><tspan
       sodipodi:role="line"
       x="12.069183"
       y="97.335968"
       style="font-size:7.05556px;line-height:100%"
       id="tspan38350-6">-60º</tspan></text><text
     id="text1737-3-7-6-0-3-2-73-3-2-2-2-4-2-5-6-0"
     y="136.92772"
     x="64.465782"
     style="font-style:normal;font-variant:normal;font-weight:bold;font-stretch:normal;font-size:7.05556px;line-height:0;font-family:'Liberation Sans';-inkscape-font-specification:'Liberation Sans Bold';text-align:center;letter-spacing:0px;word-spacing:0px;text-anchor:middle;fill:#000000;fill-opacity:1;stroke:none;stroke-width:0.264583px;stroke-linecap:butt;stroke-linejoin:miter;stroke-opacity:1"
     xml:space="preserve"><tspan
       sodipodi:role="line"
       x="64.465782"
       y="136.92772"
       style="font-size:7.05556px;line-height:100%"
       id="tspan38350-5-7">Ponto cego</tspan></text><path
     id="path1820-4-7-4-8-5-9-6-2-75"
     d="m 63.099936,128.80362 0.860272,-11.95348"
     style="fill:none;fill-rule:evenodd;stroke:#000000;stroke-width:0.352778;stroke-linecap:butt;stroke-linejoin:miter;stroke-miterlimit:4;stroke-dasharray:none;stroke-opacity:1;marker-end:url(#marker2085-7-5-1-7-7-2-1-2-6-7)"
     sodipodi:nodetypes="cc" /><path
     style="opacity:1;fill:none;stroke:#808080;stroke-width:0.499999;stroke-linecap:round;stroke-linejoin:round;stroke-dasharray:none;stroke-dashoffset:0"
     d="m 158.38536,97.436063 c 0,0 0.478,-1.583152 0.62107,-2.395577 0.2164,-1.228862 0.16633,-2.493011 0.3549,-3.72645 0.23756,-1.553879 0.548,-3.101152 0.97598,-4.613703 0.59852,-2.115274 1.33108,-3.891284 2.35928,-5.834325 0.6336,-1.197343 1.29445,-2.247933 2.06621,-3.361247 0.76641,-1.105594 1.48142,-2.08101 2.40634,-3.057864 0.58157,-0.614221 1.42997,-1.596682 2.2132,-1.916123 0.99532,-0.405945 2.19082,-0.305644 3.25685,-0.443624 0.73852,-0.09559 1.32762,-0.116219 1.98285,-0.470075 1.29278,-0.698158 1.98152,-2.178614 2.8392,-3.371551 0.92972,-1.293135 1.77204,-2.656831 2.4843,-4.081352 0.56981,-1.139617 1.06919,-2.324002 1.4196,-3.549001 0.23135,-0.808763 0.22388,-1.390157 0.53774,-2.170613 0.23872,-0.593603 0.63081,-1.368615 0.97059,-1.910739 0.30978,-0.494255 1.04145,-0.845145 1.48326,-1.226005 1.25624,-1.082932 2.25728,-1.218083 3.79811,-1.831858 0.82655,-0.329248 1.94429,-0.826406 2.70388,-1.289664 1.10926,-0.676517 2.06718,-1.599759 2.92793,-2.573028 0.5217,-0.589898 0.97716,-1.248363 1.33088,-1.95195 0.73099,-1.454025 1.12089,-3.057485 1.59704,-4.613701 0.40299,-1.317112 0.65866,-2.676455 1.06471,-3.992629 0.34192,-1.10831 0.63071,-2.24744 1.15343,-3.282825 0.40296,-0.79817 1.05599,-1.446856 1.50831,-2.218127 0.16727,-0.285226 0.17369,-0.69627 0.44362,-0.887251 0.19465,-0.137718 0.47696,-0.140092 0.7098,-0.08873 0.27247,0.0601 0.68614,0.281195 0.92055,0.432536 0.35834,0.231353 0.58436,0.37863 0.94269,0.609985 0.2344,0.151338 0.37391,0.606903 0.56562,0.809615 0.46385,0.490461 0.66315,0.991621 0.88172,1.630321 0.1842,0.538242 0.29586,1.018791 0.41589,1.574871 0.70546,3.268276 1.48825,4.487134 1.75204,7.820258 0.0211,0.266977 0.821,2.205672 0.821,2.649296 0,0.443627 0.15392,3.220367 0.29217,4.104729 0.181,1.157795 0.57064,1.873809 0.80928,3.02111 0.23519,1.130741 0.51746,1.22333 0.67306,2.367742 0.21133,1.55429 0.91855,7.798723 1.06468,9.360491 0.55725,5.955163 0.96628,7.160627 1.77451,13.086946 0.22951,1.682862 0.47801,3.364922 0.62108,5.057325 0.10724,1.268576 -0.0106,2.556037 0.17746,3.815178 1.02146,6.154562 1.00323,12.902266 1.15338,18.454806 0.0609,2.70189 0.0948,4.64345 0.17049,7.09801"
     id="path59641"
     sodipodi:nodetypes="cssssssssssssssssssssssssssssssssssssssccc" /><path
     style="opacity:1;fill:none;stroke:#808080;stroke-width:0.499999;stroke-linecap:round;stroke-linejoin:round;stroke-dasharray:none;stroke-dashoffset:0"
     d="m 216.06042,114.47124 0.17366,-23.600831 c 0.10094,-1.439675 0.093,-3.251331 0.17745,-4.6137 0.18541,-2.171237 1.68151,-4.061417 2.04068,-6.210753 0.35588,-2.129648 0.0887,-6.476928 0.0887,-6.476928 l 2.66177,-21.382736 1.50833,-5.678403 0.44363,-5.767128 c 0.17937,-0.728611 1.14118,-2.555139 1.77448,-2.750476 0.75664,0.198712 1.1706,2.366129 1.33088,3.549002 l 0.26617,4.258802 0.0887,7.896529 -0.17745,9.671029 c -0.26083,9.078506 -0.17744,18.157645 -0.17744,27.238589 l 0.17744,7.186729 0.18595,16.634275 c 0.94525,0 3.05569,-0.0148 3.36309,-0.0427 l -0.35494,-76.3035 c 0,0 0.83835,-6.327123 2.66176,-8.78378 0.31777,-0.428123 0.86263,-1.142261 1.33085,-0.887251 0.75623,0.411869 1.65114,4.574866 3.10539,6.476929 0.52217,0.682965 1.22199,1.231606 1.95194,1.685776 1.60908,1.001155 3.71294,1.088772 5.23478,2.218127 0.92746,0.688266 1.32464,1.92994 2.21814,2.66175 0.62451,0.511492 1.4692,0.688896 2.12939,1.153425 0.61666,0.433905 1.15557,0.97221 1.68579,1.508326 1.32643,1.341189 2.68675,2.684881 3.72645,4.258802 0.97698,1.478974 1.55233,3.187234 2.30685,4.791152 0.51262,1.089699 0.75205,2.345671 1.50833,3.282828 0.46433,0.575382 1.30073,0.763224 1.77448,1.330875 0.29662,0.35541 0.72487,0.802845 1.09163,1.085305 0.57443,0.442391 1.08442,0.158045 1.65885,0.60047 0.83831,0.645623 0.77858,1.997379 1.41962,2.839201 1.20528,1.582788 2.9642,2.654336 4.43624,3.992629 1.45585,1.323574 2.70776,2.905203 4.34753,3.992625 1.24636,0.82653 2.75309,1.176019 4.08136,1.863228 1.30653,0.67596 3.81516,2.218126 3.81516,2.218126"
     id="path59781"
     sodipodi:nodetypes="cccsccccccccccccccssssssssssssssssssc" /><path
     style="opacity:1;fill:none;stroke:#5599ff;stroke-width:0.5;stroke-linecap:round;stroke-linejoin:round;stroke-dasharray:none;stroke-dashoffset:0"
     d="m 158.20791,111.09971 c 0,0 2.18415,0.2889 3.28282,0.3549 9.59531,0.5764 19.23959,0.91881 28.83564,0.3549 1.36961,-0.0805 2.72578,-0.32084 4.08136,-0.53235 1.63352,-0.25487 3.2286,-0.80549 4.87986,-0.88725 1.09653,-0.0543 2.18499,0.26091 3.28285,0.26618 0.8302,0.004 1.70792,0.11663 2.4843,-0.17745 1.77568,-0.67259 3.11098,-2.19297 4.52496,-3.46028 0.66982,-0.60034 1.40178,-1.17984 1.86322,-1.95195 0.73408,-1.22831 0.98559,-2.69267 1.33088,-4.08134 0.3332,-1.340073 0.53399,-2.711723 0.7098,-4.081356 0.27206,-2.119392 0.53237,-6.388203 0.53237,-6.388203 l 0.79851,-55.89678 0.88725,56.251678 c 0,0 0.81446,4.879816 1.4196,7.275455 0.58419,2.312696 1.13424,4.664016 2.12942,6.831826 0.46562,1.01427 1.043,1.99631 1.77448,2.8392 0.4815,0.55484 1.03898,1.07129 1.68579,1.4196 0.73328,0.39487 1.56525,0.64511 2.39557,0.7098 0.4462,0.0348 1.46253,-0.17019 1.46253,-0.17019 l 0.0561,4.72652 3.36124,-0.12006 -0.0197,-4.32038 c 0,0 3.11783,0.70426 4.70244,0.88725 2.02911,0.23432 4.45816,0.19855 6.49667,0.32775 1.77709,0.11263 3.54316,0.41131 5.32352,0.44363 1.89456,0.0344 3.78354,-0.27747 5.67838,-0.26618 1.00728,0.006 2.00941,0.16883 3.01667,0.17745 1.42078,0.0122 2.83799,-0.16917 4.25879,-0.17745 2.95878,-0.0172 5.92391,0.0203 8.87251,0.26618 1.5172,0.12652 3.00336,0.57027 4.52498,0.62107 1.2741,0.0425 2.54721,-0.13404 3.81516,-0.26617 1.06913,-0.11141 3.19411,-0.44363 3.19411,-0.44363"
     id="path60001"
     sodipodi:nodetypes="csssssssssscccsssssccccsssssssssc" /><rect
     style="opacity:1;fill:none;stroke:#000000;stroke-width:0.499999;stroke-linecap:round;stroke-linejoin:round;stroke-dasharray:none;stroke-dashoffset:0"
     id="rect60193"
     width="122.08566"
     height="96.3554"
     x="158.20474"
     y="18.115875" /><text
     id="text1737-3-7-6-0-3-2-73-3-2-2-2-4-2-5-6-0-7"
     y="137.10342"
     x="216.91486"
     style="font-style:normal;font-variant:normal;font-weight:bold;font-stretch:normal;font-size:7.05556px;line-height:0;font-family:'Liberation Sans';-inkscape-font-specification:'Liberation Sans Bold';text-align:center;letter-spacing:0px;word-spacing:0px;text-anchor:middle;fill:#000000;fill-opacity:1;stroke:none;stroke-width:0.264583px;stroke-linecap:butt;stroke-linejoin:miter;stroke-opacity:1"
     xml:space="preserve"><tspan
       sodipodi:role="line"
       x="216.91486"
       y="137.10342"
       style="font-size:7.05556px;line-height:100%"
       id="tspan38350-5-7-4">Graus em relação à fóvea</tspan></text><text
     id="text1737-3-7-6-0-3-2-73-3-2-2-2-4-2-5-6-0-7-5"
     y="138.80527"
     x="-65.946396"
     style="font-style:normal;font-variant:normal;font-weight:bold;font-stretch:normal;font-size:7.05556px;line-height:0;font-family:'Liberation Sans';-inkscape-font-specification:'Liberation Sans Bold';text-align:center;letter-spacing:0px;word-spacing:0px;text-anchor:middle;fill:#000000;fill-opacity:1;stroke:none;stroke-width:0.264583px;stroke-linecap:butt;stroke-linejoin:miter;stroke-opacity:1"
     xml:space="preserve"
     transform="rotate(-90)"><tspan
       sodipodi:role="line"
       x="-65.946396"
       y="138.80527"
       style="font-size:7.05556px;line-height:100%"
       id="tspan38350-5-7-4-9">Receptores por mm² (x 10<tspan
   style="font-size:65%;baseline-shift:super"
   id="tspan61414">5</tspan>)</tspan></text><text
     id="text1737-3-7-6-0-3-2-73-3-2-2-2-4-2-5-6-0-7-59"
     y="124.49798"
     x="215.14551"
     style="font-style:normal;font-variant:normal;font-weight:bold;font-stretch:normal;font-size:7.05556px;line-height:0;font-family:'Liberation Sans';-inkscape-font-specification:'Liberation Sans Bold';text-align:center;letter-spacing:0px;word-spacing:0px;text-anchor:middle;fill:#000000;fill-opacity:1;stroke:none;stroke-width:0.264583px;stroke-linecap:butt;stroke-linejoin:miter;stroke-opacity:1"
     xml:space="preserve"><tspan
       sodipodi:role="line"
       x="215.14551"
       y="124.49798"
       style="font-size:7.05556px;line-height:100%"
       id="tspan38350-5-7-4-4">-60   -40   -20     0      20    40     60</tspan></text><text
     id="text1737-3-7-6-0-3-2-73-3-2-2-2-4-2-5-6-0-7-59-1"
     y="20.799952"
     x="150.26663"
     style="font-style:normal;font-variant:normal;font-weight:bold;font-stretch:normal;font-size:7.05556px;line-height:0;font-family:'Liberation Sans';-inkscape-font-specification:'Liberation Sans Bold';text-align:center;letter-spacing:0px;word-spacing:0px;text-anchor:middle;fill:#000000;fill-opacity:1;stroke:none;stroke-width:0.264583px;stroke-linecap:butt;stroke-linejoin:miter;stroke-opacity:1"
     xml:space="preserve"><tspan
       sodipodi:role="line"
       x="150.26663"
       y="20.799952"
       style="font-size:7.05556px;line-height:100%"
       id="tspan38350-5-7-4-4-0">1.8</tspan><tspan
       sodipodi:role="line"
       x="150.26663"
       y="27.855511"
       style="font-size:7.05556px;line-height:100%"
       id="tspan62046" /><tspan
       sodipodi:role="line"
       x="150.26663"
       y="34.911072"
       style="font-size:7.05556px;line-height:100%"
       id="tspan62048" /><tspan
       sodipodi:role="line"
       x="150.26663"
       y="41.966633"
       style="font-size:7.05556px;line-height:100%"
       id="tspan62050">1.4</tspan><tspan
       sodipodi:role="line"
       x="150.26663"
       y="49.022194"
       style="font-size:7.05556px;line-height:100%"
       id="tspan62052" /><tspan
       sodipodi:role="line"
       x="150.26663"
       y="56.077751"
       style="font-size:7.05556px;line-height:100%"
       id="tspan62054" /><tspan
       sodipodi:role="line"
       x="150.26663"
       y="63.133312"
       style="font-size:7.05556px;line-height:100%"
       id="tspan62056">1.0</tspan><tspan
       sodipodi:role="line"
       x="150.26663"
       y="70.188873"
       style="font-size:7.05556px;line-height:100%"
       id="tspan62058" /><tspan
       sodipodi:role="line"
       x="150.26663"
       y="77.244431"
       style="font-size:7.05556px;line-height:100%"
       id="tspan62060" /><tspan
       sodipodi:role="line"
       x="150.26663"
       y="84.299995"
       style="font-size:7.05556px;line-height:100%"
       id="tspan62062">0.6</tspan><tspan
       sodipodi:role="line"
       x="150.26663"
       y="91.355553"
       style="font-size:7.05556px;line-height:100%"
       id="tspan62064" /><tspan
       sodipodi:role="line"
       x="150.26663"
       y="98.41111"
       style="font-size:7.05556px;line-height:100%"
       id="tspan62066" /><tspan
       sodipodi:role="line"
       x="150.26663"
       y="105.46667"
       style="font-size:7.05556px;line-height:100%"
       id="tspan62068">0.2</tspan></text><path
     id="path1820-4-7-4-8-5-9-6-2-75-5"
     d="m 227.62785,15.181554 0.10372,21.324716"
     style="fill:none;fill-rule:evenodd;stroke:#000000;stroke-width:0.352778;stroke-linecap:butt;stroke-linejoin:miter;stroke-miterlimit:4;stroke-dasharray:none;stroke-opacity:1;marker-end:url(#marker2085-7-5-1-7-7-2-1-2-6-7-9)"
     sodipodi:nodetypes="cc" /><text
     id="text1737-3-7-6-0-3-2-73-3-2-2-2-4-2-5-6-0-9-2"
     y="29.7262"
     x="188.36499"
     style="font-style:normal;font-variant:normal;font-weight:bold;font-stretch:normal;font-size:7.05556px;line-height:0;font-family:'Liberation Sans';-inkscape-font-specification:'Liberation Sans Bold';text-align:center;letter-spacing:0px;word-spacing:0px;text-anchor:middle;fill:#666666;fill-opacity:1;stroke:none;stroke-width:0.264583px;stroke-linecap:butt;stroke-linejoin:miter;stroke-opacity:1"
     xml:space="preserve"><tspan
       sodipodi:role="line"
       x="188.36499"
       y="29.7262"
       style="font-size:7.05556px;line-height:100%;fill:#666666"
       id="tspan38350-5-7-2-1">Bastonetes</tspan></text><text
     id="text1737-3-7-6-0-3-2-73-3-2-2-2-4-2-5-6-0-9-2-6"
     y="108.52374"
     x="255.98035"
     style="font-style:normal;font-variant:normal;font-weight:bold;font-stretch:normal;font-size:7.05556px;line-height:0;font-family:'Liberation Sans';-inkscape-font-specification:'Liberation Sans Bold';text-align:center;letter-spacing:0px;word-spacing:0px;text-anchor:middle;fill:#5599ff;fill-opacity:1;stroke:none;stroke-width:0.264583px;stroke-linecap:butt;stroke-linejoin:miter;stroke-opacity:1"
     xml:space="preserve"><tspan
       sodipodi:role="line"
       x="255.98035"
       y="108.52374"
       style="font-size:7.05556px;line-height:100%;fill:#5599ff"
       id="tspan38350-5-7-2-1-1">Cones</tspan></text><path
     style="opacity:1;fill:none;stroke:#000000;stroke-width:0.499999;stroke-linecap:round;stroke-linejoin:round;stroke-dasharray:none;stroke-dashoffset:0"
     d="m 166.39279,114.25262 v -0.9348"
     id="path63969"
     sodipodi:nodetypes="cc" /><path
     style="fill:none;stroke:#000000;stroke-width:0.499999;stroke-linecap:round;stroke-linejoin:round;stroke-dasharray:none;stroke-dashoffset:0"
     d="m 263.90526,114.25262 v -0.9348"
     id="path63969-3-0"
     sodipodi:nodetypes="cc" /><path
     style="fill:none;stroke:#000000;stroke-width:0.499999;stroke-linecap:round;stroke-linejoin:round;stroke-dasharray:none;stroke-dashoffset:0"
     d="m 247.71655,114.25262 v -0.9348"
     id="path63969-5-0"
     sodipodi:nodetypes="cc" /><path
     style="fill:none;stroke:#000000;stroke-width:0.499999;stroke-linecap:round;stroke-linejoin:round;stroke-dasharray:none;stroke-dashoffset:0"
     d="m 231.40109,114.25262 v -0.9348"
     id="path63969-56"
     sodipodi:nodetypes="cc" /><path
     style="fill:none;stroke:#000000;stroke-width:0.499999;stroke-linecap:round;stroke-linejoin:round;stroke-dasharray:none;stroke-dashoffset:0"
     d="m 158.38536,103.73845 h 0.9348"
     id="path63969-3-0-5"
     sodipodi:nodetypes="cc" /><path
     style="fill:none;stroke:#000000;stroke-width:0.499999;stroke-linecap:round;stroke-linejoin:round;stroke-dasharray:none;stroke-dashoffset:0"
     d="m 158.38536,93.213742 h 0.9348"
     id="path63969-5-0-3"
     sodipodi:nodetypes="cc" /><path
     style="fill:none;stroke:#000000;stroke-width:0.499999;stroke-linecap:round;stroke-linejoin:round;stroke-dasharray:none;stroke-dashoffset:0"
     d="m 158.38536,82.499527 h 0.9348"
     id="path63969-56-3"
     sodipodi:nodetypes="cc" /><text
     id="text1737-3-7-6-0-3-2-73-3-2-2-2-4-2-5-6-0-9-0"
     y="11.458385"
     x="95.467186"
     style="font-style:normal;font-variant:normal;font-weight:bold;font-stretch:normal;font-size:7.05556px;line-height:0;font-family:'Liberation Sans';-inkscape-font-specification:'Liberation Sans Bold';text-align:center;letter-spacing:0px;word-spacing:0px;text-anchor:middle;fill:#000000;fill-opacity:1;stroke:none;stroke-width:0.264583px;stroke-linecap:butt;stroke-linejoin:miter;stroke-opacity:1"
     xml:space="preserve"><tspan
       sodipodi:role="line"
       x="95.467186"
       y="11.458385"
       style="font-size:7.05556px;line-height:100%"
       id="tspan38350-5-7-2-12">Lado</tspan><tspan
       sodipodi:role="line"
       x="95.467186"
       y="18.513947"
       style="font-size:7.05556px;line-height:100%"
       id="tspan1412">nasal</tspan></text><text
     id="text1737-3-7-6-0-3-2-73-3-2-2-2-4-2-5-6-0-9-0-2"
     y="11.458385"
     x="19.796339"
     style="font-style:normal;font-variant:normal;font-weight:bold;font-stretch:normal;font-size:7.05556px;line-height:0;font-family:'Liberation Sans';-inkscape-font-specification:'Liberation Sans Bold';text-align:center;letter-spacing:0px;word-spacing:0px;text-anchor:middle;fill:#000000;fill-opacity:1;stroke:none;stroke-width:0.264583px;stroke-linecap:butt;stroke-linejoin:miter;stroke-opacity:1"
     xml:space="preserve"><tspan
       sodipodi:role="line"
       x="19.796339"
       y="11.458385"
       style="font-size:7.05556px;line-height:100%"
       id="tspan38350-5-7-2-12-0">Lado</tspan><tspan
       sodipodi:role="line"
       x="19.796339"
       y="18.513947"
       style="font-size:7.05556px;line-height:100%"
       id="tspan1412-3">temporal</tspan></text><g
     id="g1998"
     transform="matrix(0,1,1,0,90.063819,-44.193331)"
     clip-path="url(#clipPath2658)"><path
       style="fill:none;stroke:#000000;stroke-width:0.499999;stroke-linecap:round;stroke-linejoin:round;stroke-dasharray:none;stroke-dashoffset:0"
       d="m 99.743902,9.563731 c -22.92136,-8.71394 -27.59481,-34.527349 -27.80769,-35.33056 -0.28234,-1.065266 -1.3412,-1.224348 -2.08503,-0.221812 -2.63049,3.895855 3.5955,13.136781 4.943195,15.538387"
       id="path18577-0-0"
       sodipodi:nodetypes="cscc" /><path
       style="fill:none;stroke:#000000;stroke-width:0.5;stroke-linecap:round;stroke-linejoin:round;stroke-dasharray:none;stroke-dashoffset:0"
       d="m 67.766714,-53.203058 c -14.17668,18.662062 -7.291532,30.954479 2.628698,44.290472 5.32502,6.532519 11.934095,16.246537 26.726056,22.313197 47.285962,14.51108 64.850572,-27.470861 65.560992,-30.886514 0.17218,-0.707366 0.38883,-0.582972 0.97785,-0.77058 1.31006,-0.203039 7.31687,3.585454 20.19692,11.633842 6.32961,2.0569 13.48656,-16.080728 10.58778,-18.664692 -2.55916,-2.906175 -14.88814,-3.169355 -25.59543,-5.114236 -1.12064,-0.201915 -2.47983,-1.25187 -2.72913,-2.164462 -6.32361,-31.115897 -26.60063,-55.696349 -66.900425,-45.356593 -19.003099,5.484822 -31.453311,24.719566 -31.453311,24.719566 z"
       id="path935-8"
       sodipodi:nodetypes="ccccccccccc" /><path
       style="fill:none;stroke:#000000;stroke-width:0.499999;stroke-linecap:round;stroke-linejoin:round;stroke-dasharray:none;stroke-dashoffset:0"
       d="m 94.316022,-71.722004 c -18.39638,11.641865 -21.0831,29.806409 -21.29401,30.61014 -0.28431,1.064742 -2.27281,0.825086 -3.01664,-0.17745 -2.63049,-3.895855 3.340403,-10.442226 6.210756,-14.817082"
       id="path18577-3"
       sodipodi:nodetypes="cccc" /></g></svg>
