<?xml version="1.0" encoding="UTF-8" standalone="no"?>
<svg
   xmlns:dc="http://purl.org/dc/elements/1.1/"
   xmlns:cc="http://creativecommons.org/ns#"
   xmlns:rdf="http://www.w3.org/1999/02/22-rdf-syntax-ns#"
   xmlns:svg="http://www.w3.org/2000/svg"
   xmlns="http://www.w3.org/2000/svg"
   xmlns:xlink="http://www.w3.org/1999/xlink"
   id="svg8"
   version="1.1"
   viewBox="0 0 120 120"
   height="120mm"
   width="120mm">
  <defs
     id="defs2">
    <marker
       orient="auto"
       refY="0"
       refX="0"
       id="Arrow2Mend"
       style="overflow:visible">
      <path
         id="path844"
         style="fill:#000000;fill-opacity:1;fill-rule:evenodd;stroke:#000000;stroke-width:0.625;stroke-linejoin:round;stroke-opacity:1"
         d="M 8.7185878,4.0337352 -2.2072895,0.01601326 8.7185884,-4.0017078 c -1.7454984,2.3720609 -1.7354408,5.6174519 -6e-7,8.035443 z"
         transform="scale(-0.6)" />
    </marker>
    <marker
       orient="auto"
       refY="0"
       refX="0"
       id="Arrow2Lend"
       style="overflow:visible">
      <path
         id="path838"
         style="fill:#4d4d4d;fill-opacity:1;fill-rule:evenodd;stroke:#4d4d4d;stroke-width:0.625;stroke-linejoin:round;stroke-opacity:1"
         d="M 8.7185878,4.0337352 -2.2072895,0.01601326 8.7185884,-4.0017078 c -1.7454984,2.3720609 -1.7354408,5.6174519 -6e-7,8.035443 z"
         transform="matrix(-1.1,0,0,-1.1,-1.1,0)" />
    </marker>
    <marker
       orient="auto"
       refY="0"
       refX="0"
       id="Arrow2Mend-7"
       style="overflow:visible">
      <path
         id="path844-2"
         style="fill:#000000;fill-opacity:1;fill-rule:evenodd;stroke:#000000;stroke-width:0.625;stroke-linejoin:round;stroke-opacity:1"
         d="M 8.7185878,4.0337352 -2.2072895,0.01601326 8.7185884,-4.0017078 c -1.7454984,2.3720609 -1.7354408,5.6174519 -6e-7,8.035443 z"
         transform="scale(-0.6)" />
    </marker>
    <marker
       orient="auto"
       refY="0"
       refX="0"
       id="Arrow2Lend-3"
       style="overflow:visible">
      <path
         id="path838-6"
         style="fill:#4d4d4d;fill-opacity:1;fill-rule:evenodd;stroke:#4d4d4d;stroke-width:0.625;stroke-linejoin:round;stroke-opacity:1"
         d="M 8.7185878,4.0337352 -2.2072895,0.01601326 8.7185884,-4.0017078 c -1.7454984,2.3720609 -1.7354408,5.6174519 -6e-7,8.035443 z"
         transform="matrix(-1.1,0,0,-1.1,-1.1,0)" />
    </marker>
    <marker
       orient="auto"
       refY="0"
       refX="0"
       id="Arrow2Lend-3-1"
       style="overflow:visible">
      <path
         id="path838-6-1"
         style="fill:#000000;fill-opacity:1;fill-rule:evenodd;stroke:#000000;stroke-width:0.625;stroke-linejoin:round;stroke-opacity:1"
         d="M 8.7185878,4.0337352 -2.2072895,0.01601326 8.7185884,-4.0017078 c -1.7454984,2.3720609 -1.7354408,5.6174519 -6e-7,8.035443 z"
         transform="matrix(-1.1,0,0,-1.1,-1.1,0)" />
    </marker>
    <g
       id="g7023">
      <symbol
         overflow="visible"
         id="symbol9170">
        <path
           style="stroke:none;"
           d=""
           id="path3607" />
      </symbol>
      <symbol
         overflow="visible"
         id="symbol3242">
        <path
           style="stroke:none;"
           d="M 2.046875 -3.984375 L 2.984375 -3.984375 C 3.1875 -3.984375 3.296875 -3.984375 3.296875 -4.1875 C 3.296875 -4.296875 3.1875 -4.296875 3.015625 -4.296875 L 2.140625 -4.296875 C 2.5 -5.71875 2.546875 -5.90625 2.546875 -5.96875 C 2.546875 -6.140625 2.421875 -6.234375 2.25 -6.234375 C 2.21875 -6.234375 1.9375 -6.234375 1.859375 -5.875 L 1.46875 -4.296875 L 0.53125 -4.296875 C 0.328125 -4.296875 0.234375 -4.296875 0.234375 -4.109375 C 0.234375 -3.984375 0.3125 -3.984375 0.515625 -3.984375 L 1.390625 -3.984375 C 0.671875 -1.15625 0.625 -0.984375 0.625 -0.8125 C 0.625 -0.265625 1 0.109375 1.546875 0.109375 C 2.5625 0.109375 3.125 -1.34375 3.125 -1.421875 C 3.125 -1.53125 3.046875 -1.53125 3.015625 -1.53125 C 2.921875 -1.53125 2.90625 -1.5 2.859375 -1.390625 C 2.4375 -0.34375 1.90625 -0.109375 1.5625 -0.109375 C 1.359375 -0.109375 1.25 -0.234375 1.25 -0.5625 C 1.25 -0.8125 1.28125 -0.875 1.3125 -1.046875 Z M 2.046875 -3.984375 "
           id="path1480" />
      </symbol>
      <symbol
         overflow="visible"
         id="symbol9494">
        <path
           style="stroke:none;"
           d="M 1.859375 -2.296875 C 2.15625 -2.296875 2.890625 -2.328125 3.390625 -2.53125 C 4.09375 -2.828125 4.140625 -3.421875 4.140625 -3.5625 C 4.140625 -4 3.765625 -4.40625 3.078125 -4.40625 C 1.96875 -4.40625 0.453125 -3.4375 0.453125 -1.6875 C 0.453125 -0.671875 1.046875 0.109375 2.03125 0.109375 C 3.453125 0.109375 4.28125 -0.953125 4.28125 -1.0625 C 4.28125 -1.125 4.234375 -1.203125 4.171875 -1.203125 C 4.109375 -1.203125 4.09375 -1.171875 4.03125 -1.09375 C 3.25 -0.109375 2.15625 -0.109375 2.046875 -0.109375 C 1.265625 -0.109375 1.171875 -0.953125 1.171875 -1.265625 C 1.171875 -1.390625 1.1875 -1.6875 1.328125 -2.296875 Z M 1.390625 -2.515625 C 1.78125 -4.03125 2.8125 -4.1875 3.078125 -4.1875 C 3.53125 -4.1875 3.8125 -3.890625 3.8125 -3.5625 C 3.8125 -2.515625 2.21875 -2.515625 1.796875 -2.515625 Z M 1.390625 -2.515625 "
           id="path6290" />
      </symbol>
      <symbol
         overflow="visible"
         id="symbol7947">
        <path
           style="stroke:none;"
           d="M 3.890625 -3.734375 C 3.625 -3.71875 3.421875 -3.5 3.421875 -3.28125 C 3.421875 -3.140625 3.515625 -2.984375 3.734375 -2.984375 C 3.953125 -2.984375 4.1875 -3.15625 4.1875 -3.546875 C 4.1875 -4 3.765625 -4.40625 3 -4.40625 C 1.6875 -4.40625 1.3125 -3.390625 1.3125 -2.953125 C 1.3125 -2.171875 2.046875 -2.03125 2.34375 -1.96875 C 2.859375 -1.859375 3.375 -1.75 3.375 -1.203125 C 3.375 -0.953125 3.15625 -0.109375 1.953125 -0.109375 C 1.8125 -0.109375 1.046875 -0.109375 0.8125 -0.640625 C 1.203125 -0.59375 1.453125 -0.890625 1.453125 -1.171875 C 1.453125 -1.390625 1.28125 -1.515625 1.078125 -1.515625 C 0.8125 -1.515625 0.515625 -1.3125 0.515625 -0.859375 C 0.515625 -0.296875 1.09375 0.109375 1.9375 0.109375 C 3.5625 0.109375 3.953125 -1.09375 3.953125 -1.546875 C 3.953125 -1.90625 3.765625 -2.15625 3.640625 -2.265625 C 3.375 -2.546875 3.078125 -2.609375 2.640625 -2.6875 C 2.28125 -2.765625 1.890625 -2.84375 1.890625 -3.296875 C 1.890625 -3.578125 2.125 -4.1875 3 -4.1875 C 3.25 -4.1875 3.75 -4.109375 3.890625 -3.734375 Z M 3.890625 -3.734375 "
           id="path9583" />
      </symbol>
    </g>
    <g
       id="g1166">
      <symbol
         overflow="visible"
         id="symbol7955">
        <path
           style="stroke:none;"
           d=""
           id="path5959" />
      </symbol>
      <symbol
         overflow="visible"
         id="symbol3118">
        <path
           style="stroke:none;"
           d="M 3.328125 -3.015625 C 3.390625 -3.265625 3.625 -4.1875 4.3125 -4.1875 C 4.359375 -4.1875 4.609375 -4.1875 4.8125 -4.0625 C 4.53125 -4 4.34375 -3.765625 4.34375 -3.515625 C 4.34375 -3.359375 4.453125 -3.171875 4.71875 -3.171875 C 4.9375 -3.171875 5.25 -3.34375 5.25 -3.75 C 5.25 -4.265625 4.671875 -4.40625 4.328125 -4.40625 C 3.75 -4.40625 3.40625 -3.875 3.28125 -3.65625 C 3.03125 -4.3125 2.5 -4.40625 2.203125 -4.40625 C 1.171875 -4.40625 0.59375 -3.125 0.59375 -2.875 C 0.59375 -2.765625 0.703125 -2.765625 0.71875 -2.765625 C 0.796875 -2.765625 0.828125 -2.796875 0.84375 -2.875 C 1.1875 -3.9375 1.84375 -4.1875 2.1875 -4.1875 C 2.375 -4.1875 2.71875 -4.09375 2.71875 -3.515625 C 2.71875 -3.203125 2.546875 -2.546875 2.1875 -1.140625 C 2.03125 -0.53125 1.671875 -0.109375 1.234375 -0.109375 C 1.171875 -0.109375 0.953125 -0.109375 0.734375 -0.234375 C 0.984375 -0.296875 1.203125 -0.5 1.203125 -0.78125 C 1.203125 -1.046875 0.984375 -1.125 0.84375 -1.125 C 0.53125 -1.125 0.296875 -0.875 0.296875 -0.546875 C 0.296875 -0.09375 0.78125 0.109375 1.21875 0.109375 C 1.890625 0.109375 2.25 -0.59375 2.265625 -0.640625 C 2.390625 -0.28125 2.75 0.109375 3.34375 0.109375 C 4.375 0.109375 4.9375 -1.171875 4.9375 -1.421875 C 4.9375 -1.53125 4.859375 -1.53125 4.828125 -1.53125 C 4.734375 -1.53125 4.71875 -1.484375 4.6875 -1.421875 C 4.359375 -0.34375 3.6875 -0.109375 3.375 -0.109375 C 2.984375 -0.109375 2.828125 -0.421875 2.828125 -0.765625 C 2.828125 -0.984375 2.875 -1.203125 2.984375 -1.640625 Z M 3.328125 -3.015625 "
           id="path2816" />
      </symbol>
    </g>
    <g
       id="g5727">
      <symbol
         overflow="visible"
         id="symbol9609">
        <path
           style="stroke:none;"
           d=""
           id="path4360" />
      </symbol>
      <symbol
         overflow="visible"
         id="symbol4464">
        <path
           style="stroke:none;"
           d="M 4.84375 -3.796875 C 4.890625 -3.9375 4.890625 -3.953125 4.890625 -4.03125 C 4.890625 -4.203125 4.75 -4.296875 4.59375 -4.296875 C 4.5 -4.296875 4.34375 -4.234375 4.25 -4.09375 C 4.234375 -4.03125 4.140625 -3.734375 4.109375 -3.546875 C 4.03125 -3.296875 3.96875 -3.015625 3.90625 -2.75 L 3.453125 -0.953125 C 3.421875 -0.8125 2.984375 -0.109375 2.328125 -0.109375 C 1.828125 -0.109375 1.71875 -0.546875 1.71875 -0.921875 C 1.71875 -1.375 1.890625 -2 2.21875 -2.875 C 2.375 -3.28125 2.421875 -3.390625 2.421875 -3.59375 C 2.421875 -4.03125 2.109375 -4.40625 1.609375 -4.40625 C 0.65625 -4.40625 0.296875 -2.953125 0.296875 -2.875 C 0.296875 -2.765625 0.390625 -2.765625 0.40625 -2.765625 C 0.515625 -2.765625 0.515625 -2.796875 0.5625 -2.953125 C 0.84375 -3.890625 1.234375 -4.1875 1.578125 -4.1875 C 1.65625 -4.1875 1.828125 -4.1875 1.828125 -3.875 C 1.828125 -3.625 1.71875 -3.359375 1.65625 -3.171875 C 1.25 -2.109375 1.078125 -1.546875 1.078125 -1.078125 C 1.078125 -0.1875 1.703125 0.109375 2.296875 0.109375 C 2.6875 0.109375 3.015625 -0.0625 3.296875 -0.34375 C 3.171875 0.171875 3.046875 0.671875 2.65625 1.203125 C 2.390625 1.53125 2.015625 1.828125 1.5625 1.828125 C 1.421875 1.828125 0.96875 1.796875 0.796875 1.40625 C 0.953125 1.40625 1.09375 1.40625 1.21875 1.28125 C 1.328125 1.203125 1.421875 1.0625 1.421875 0.875 C 1.421875 0.5625 1.15625 0.53125 1.0625 0.53125 C 0.828125 0.53125 0.5 0.6875 0.5 1.171875 C 0.5 1.671875 0.9375 2.046875 1.5625 2.046875 C 2.578125 2.046875 3.609375 1.140625 3.890625 0.015625 Z M 4.84375 -3.796875 "
           id="path3759" />
      </symbol>
    </g>
    <g
       id="g7169">
      <symbol
         overflow="visible"
         id="symbol5673">
        <path
           style="stroke:none;"
           d=""
           id="path9038" />
      </symbol>
      <symbol
         overflow="visible"
         id="symbol6307">
        <path
           style="stroke:none;"
           d="M 1.78125 -1.140625 C 1.390625 -0.484375 1 -0.34375 0.5625 -0.3125 C 0.4375 -0.296875 0.34375 -0.296875 0.34375 -0.109375 C 0.34375 -0.046875 0.40625 0 0.484375 0 C 0.75 0 1.0625 -0.03125 1.328125 -0.03125 C 1.671875 -0.03125 2.015625 0 2.328125 0 C 2.390625 0 2.515625 0 2.515625 -0.1875 C 2.515625 -0.296875 2.4375 -0.3125 2.359375 -0.3125 C 2.140625 -0.328125 1.890625 -0.40625 1.890625 -0.65625 C 1.890625 -0.78125 1.953125 -0.890625 2.03125 -1.03125 L 2.796875 -2.296875 L 5.296875 -2.296875 C 5.3125 -2.09375 5.453125 -0.734375 5.453125 -0.640625 C 5.453125 -0.34375 4.9375 -0.3125 4.734375 -0.3125 C 4.59375 -0.3125 4.5 -0.3125 4.5 -0.109375 C 4.5 0 4.609375 0 4.640625 0 C 5.046875 0 5.46875 -0.03125 5.875 -0.03125 C 6.125 -0.03125 6.765625 0 7.015625 0 C 7.0625 0 7.1875 0 7.1875 -0.203125 C 7.1875 -0.3125 7.09375 -0.3125 6.953125 -0.3125 C 6.34375 -0.3125 6.34375 -0.375 6.3125 -0.671875 L 5.703125 -6.890625 C 5.6875 -7.09375 5.6875 -7.140625 5.515625 -7.140625 C 5.359375 -7.140625 5.3125 -7.0625 5.25 -6.96875 Z M 2.984375 -2.609375 L 4.9375 -5.90625 L 5.265625 -2.609375 Z M 2.984375 -2.609375 "
           id="path5958" />
      </symbol>
      <symbol
         overflow="visible"
         id="symbol6675">
        <path
           style="stroke:none;"
           d="M 2.03125 -0.015625 C 2.03125 -0.671875 1.78125 -1.0625 1.390625 -1.0625 C 1.0625 -1.0625 0.859375 -0.8125 0.859375 -0.53125 C 0.859375 -0.265625 1.0625 0 1.390625 0 C 1.5 0 1.640625 -0.046875 1.734375 -0.125 C 1.765625 -0.15625 1.78125 -0.15625 1.78125 -0.15625 C 1.796875 -0.15625 1.796875 -0.15625 1.796875 -0.015625 C 1.796875 0.734375 1.453125 1.328125 1.125 1.65625 C 1.015625 1.765625 1.015625 1.78125 1.015625 1.8125 C 1.015625 1.890625 1.0625 1.921875 1.109375 1.921875 C 1.21875 1.921875 2.03125 1.15625 2.03125 -0.015625 Z M 2.03125 -0.015625 "
           id="path3641" />
      </symbol>
      <symbol
         overflow="visible"
         id="symbol4606">
        <path
           style="stroke:none;"
           d=""
           id="path2502" />
      </symbol>
      <symbol
         overflow="visible"
         id="symbol5221">
        <path
           style="stroke:none;"
           d="M 6.84375 -3.265625 C 7 -3.265625 7.1875 -3.265625 7.1875 -3.453125 C 7.1875 -3.65625 7 -3.65625 6.859375 -3.65625 L 0.890625 -3.65625 C 0.75 -3.65625 0.5625 -3.65625 0.5625 -3.453125 C 0.5625 -3.265625 0.75 -3.265625 0.890625 -3.265625 Z M 6.859375 -1.328125 C 7 -1.328125 7.1875 -1.328125 7.1875 -1.53125 C 7.1875 -1.71875 7 -1.71875 6.84375 -1.71875 L 0.890625 -1.71875 C 0.75 -1.71875 0.5625 -1.71875 0.5625 -1.53125 C 0.5625 -1.328125 0.75 -1.328125 0.890625 -1.328125 Z M 6.859375 -1.328125 "
           id="path7514" />
      </symbol>
      <symbol
         overflow="visible"
         id="symbol9019">
        <path
           style="stroke:none;"
           d="M 3.296875 2.390625 C 3.296875 2.359375 3.296875 2.34375 3.125 2.171875 C 1.890625 0.921875 1.5625 -0.96875 1.5625 -2.5 C 1.5625 -4.234375 1.9375 -5.96875 3.171875 -7.203125 C 3.296875 -7.328125 3.296875 -7.34375 3.296875 -7.375 C 3.296875 -7.453125 3.265625 -7.484375 3.203125 -7.484375 C 3.09375 -7.484375 2.203125 -6.796875 1.609375 -5.53125 C 1.109375 -4.4375 0.984375 -3.328125 0.984375 -2.5 C 0.984375 -1.71875 1.09375 -0.515625 1.640625 0.625 C 2.25 1.84375 3.09375 2.5 3.203125 2.5 C 3.265625 2.5 3.296875 2.46875 3.296875 2.390625 Z M 3.296875 2.390625 "
           id="path4475" />
      </symbol>
      <symbol
         overflow="visible"
         id="symbol9044">
        <path
           style="stroke:none;"
           d="M 4.578125 -3.1875 C 4.578125 -3.984375 4.53125 -4.78125 4.1875 -5.515625 C 3.734375 -6.484375 2.90625 -6.640625 2.5 -6.640625 C 1.890625 -6.640625 1.171875 -6.375 0.75 -5.453125 C 0.4375 -4.765625 0.390625 -3.984375 0.390625 -3.1875 C 0.390625 -2.4375 0.421875 -1.546875 0.84375 -0.78125 C 1.265625 0.015625 2 0.21875 2.484375 0.21875 C 3.015625 0.21875 3.78125 0.015625 4.21875 -0.9375 C 4.53125 -1.625 4.578125 -2.40625 4.578125 -3.1875 Z M 2.484375 0 C 2.09375 0 1.5 -0.25 1.328125 -1.203125 C 1.21875 -1.796875 1.21875 -2.71875 1.21875 -3.3125 C 1.21875 -3.953125 1.21875 -4.609375 1.296875 -5.140625 C 1.484375 -6.328125 2.234375 -6.421875 2.484375 -6.421875 C 2.8125 -6.421875 3.46875 -6.234375 3.65625 -5.25 C 3.765625 -4.6875 3.765625 -3.9375 3.765625 -3.3125 C 3.765625 -2.5625 3.765625 -1.890625 3.65625 -1.25 C 3.5 -0.296875 2.9375 0 2.484375 0 Z M 2.484375 0 "
           id="path881" />
      </symbol>
      <symbol
         overflow="visible"
         id="symbol9581">
        <path
           style="stroke:none;"
           d="M 2.9375 -6.375 C 2.9375 -6.625 2.9375 -6.640625 2.703125 -6.640625 C 2.078125 -6 1.203125 -6 0.890625 -6 L 0.890625 -5.6875 C 1.09375 -5.6875 1.671875 -5.6875 2.1875 -5.953125 L 2.1875 -0.78125 C 2.1875 -0.421875 2.15625 -0.3125 1.265625 -0.3125 L 0.953125 -0.3125 L 0.953125 0 C 1.296875 -0.03125 2.15625 -0.03125 2.5625 -0.03125 C 2.953125 -0.03125 3.828125 -0.03125 4.171875 0 L 4.171875 -0.3125 L 3.859375 -0.3125 C 2.953125 -0.3125 2.9375 -0.421875 2.9375 -0.78125 Z M 2.9375 -6.375 "
           id="path2822" />
      </symbol>
      <symbol
         overflow="visible"
         id="symbol9032">
        <path
           style="stroke:none;"
           d="M 2.875 -2.5 C 2.875 -3.265625 2.765625 -4.46875 2.21875 -5.609375 C 1.625 -6.828125 0.765625 -7.484375 0.671875 -7.484375 C 0.609375 -7.484375 0.5625 -7.4375 0.5625 -7.375 C 0.5625 -7.34375 0.5625 -7.328125 0.75 -7.140625 C 1.734375 -6.15625 2.296875 -4.578125 2.296875 -2.5 C 2.296875 -0.78125 1.9375 0.96875 0.703125 2.21875 C 0.5625 2.34375 0.5625 2.359375 0.5625 2.390625 C 0.5625 2.453125 0.609375 2.5 0.671875 2.5 C 0.765625 2.5 1.671875 1.8125 2.25 0.546875 C 2.765625 -0.546875 2.875 -1.65625 2.875 -2.5 Z M 2.875 -2.5 "
           id="path3782" />
      </symbol>
    </g>
    <g
       id="g4169">
      <symbol
         overflow="visible"
         id="symbol9654">
        <path
           style="stroke:none;"
           d=""
           id="path3862" />
      </symbol>
      <symbol
         overflow="visible"
         id="symbol2056">
        <path
           style="stroke:none;"
           d="M 1.59375 -0.78125 C 1.5 -0.390625 1.46875 -0.3125 0.6875 -0.3125 C 0.515625 -0.3125 0.421875 -0.3125 0.421875 -0.109375 C 0.421875 0 0.515625 0 0.6875 0 L 4.25 0 C 5.828125 0 7 -1.171875 7 -2.15625 C 7 -2.875 6.421875 -3.453125 5.453125 -3.5625 C 6.484375 -3.75 7.53125 -4.484375 7.53125 -5.4375 C 7.53125 -6.171875 6.875 -6.8125 5.6875 -6.8125 L 2.328125 -6.8125 C 2.140625 -6.8125 2.046875 -6.8125 2.046875 -6.609375 C 2.046875 -6.5 2.140625 -6.5 2.328125 -6.5 C 2.34375 -6.5 2.53125 -6.5 2.703125 -6.484375 C 2.875 -6.453125 2.96875 -6.453125 2.96875 -6.3125 C 2.96875 -6.28125 2.953125 -6.25 2.9375 -6.125 Z M 3.09375 -3.65625 L 3.71875 -6.125 C 3.8125 -6.46875 3.828125 -6.5 4.25 -6.5 L 5.546875 -6.5 C 6.421875 -6.5 6.625 -5.90625 6.625 -5.46875 C 6.625 -4.59375 5.765625 -3.65625 4.5625 -3.65625 Z M 2.65625 -0.3125 C 2.515625 -0.3125 2.5 -0.3125 2.4375 -0.3125 C 2.328125 -0.328125 2.296875 -0.34375 2.296875 -0.421875 C 2.296875 -0.453125 2.296875 -0.46875 2.359375 -0.640625 L 3.046875 -3.421875 L 4.921875 -3.421875 C 5.875 -3.421875 6.078125 -2.6875 6.078125 -2.265625 C 6.078125 -1.28125 5.1875 -0.3125 4 -0.3125 Z M 2.65625 -0.3125 "
           id="path1280" />
      </symbol>
      <symbol
         overflow="visible"
         id="symbol4489">
        <path
           style="stroke:none;"
           d="M 2.03125 -0.015625 C 2.03125 -0.671875 1.78125 -1.0625 1.390625 -1.0625 C 1.0625 -1.0625 0.859375 -0.8125 0.859375 -0.53125 C 0.859375 -0.265625 1.0625 0 1.390625 0 C 1.5 0 1.640625 -0.046875 1.734375 -0.125 C 1.765625 -0.15625 1.78125 -0.15625 1.78125 -0.15625 C 1.796875 -0.15625 1.796875 -0.15625 1.796875 -0.015625 C 1.796875 0.734375 1.453125 1.328125 1.125 1.65625 C 1.015625 1.765625 1.015625 1.78125 1.015625 1.8125 C 1.015625 1.890625 1.0625 1.921875 1.109375 1.921875 C 1.21875 1.921875 2.03125 1.15625 2.03125 -0.015625 Z M 2.03125 -0.015625 "
           id="path1767" />
      </symbol>
      <symbol
         overflow="visible"
         id="symbol7160">
        <path
           style="stroke:none;"
           d=""
           id="path8266" />
      </symbol>
      <symbol
         overflow="visible"
         id="symbol725">
        <path
           style="stroke:none;"
           d="M 6.84375 -3.265625 C 7 -3.265625 7.1875 -3.265625 7.1875 -3.453125 C 7.1875 -3.65625 7 -3.65625 6.859375 -3.65625 L 0.890625 -3.65625 C 0.75 -3.65625 0.5625 -3.65625 0.5625 -3.453125 C 0.5625 -3.265625 0.75 -3.265625 0.890625 -3.265625 Z M 6.859375 -1.328125 C 7 -1.328125 7.1875 -1.328125 7.1875 -1.53125 C 7.1875 -1.71875 7 -1.71875 6.84375 -1.71875 L 0.890625 -1.71875 C 0.75 -1.71875 0.5625 -1.71875 0.5625 -1.53125 C 0.5625 -1.328125 0.75 -1.328125 0.890625 -1.328125 Z M 6.859375 -1.328125 "
           id="path6969" />
      </symbol>
      <symbol
         overflow="visible"
         id="symbol2096">
        <path
           style="stroke:none;"
           d="M 3.296875 2.390625 C 3.296875 2.359375 3.296875 2.34375 3.125 2.171875 C 1.890625 0.921875 1.5625 -0.96875 1.5625 -2.5 C 1.5625 -4.234375 1.9375 -5.96875 3.171875 -7.203125 C 3.296875 -7.328125 3.296875 -7.34375 3.296875 -7.375 C 3.296875 -7.453125 3.265625 -7.484375 3.203125 -7.484375 C 3.09375 -7.484375 2.203125 -6.796875 1.609375 -5.53125 C 1.109375 -4.4375 0.984375 -3.328125 0.984375 -2.5 C 0.984375 -1.71875 1.09375 -0.515625 1.640625 0.625 C 2.25 1.84375 3.09375 2.5 3.203125 2.5 C 3.265625 2.5 3.296875 2.46875 3.296875 2.390625 Z M 3.296875 2.390625 "
           id="path3350" />
      </symbol>
      <symbol
         overflow="visible"
         id="symbol6922">
        <path
           style="stroke:none;"
           d="M 2.9375 -6.375 C 2.9375 -6.625 2.9375 -6.640625 2.703125 -6.640625 C 2.078125 -6 1.203125 -6 0.890625 -6 L 0.890625 -5.6875 C 1.09375 -5.6875 1.671875 -5.6875 2.1875 -5.953125 L 2.1875 -0.78125 C 2.1875 -0.421875 2.15625 -0.3125 1.265625 -0.3125 L 0.953125 -0.3125 L 0.953125 0 C 1.296875 -0.03125 2.15625 -0.03125 2.5625 -0.03125 C 2.953125 -0.03125 3.828125 -0.03125 4.171875 0 L 4.171875 -0.3125 L 3.859375 -0.3125 C 2.953125 -0.3125 2.9375 -0.421875 2.9375 -0.78125 Z M 2.9375 -6.375 "
           id="path7860" />
      </symbol>
      <symbol
         overflow="visible"
         id="symbol2771">
        <path
           style="stroke:none;"
           d="M 2.875 -2.5 C 2.875 -3.265625 2.765625 -4.46875 2.21875 -5.609375 C 1.625 -6.828125 0.765625 -7.484375 0.671875 -7.484375 C 0.609375 -7.484375 0.5625 -7.4375 0.5625 -7.375 C 0.5625 -7.34375 0.5625 -7.328125 0.75 -7.140625 C 1.734375 -6.15625 2.296875 -4.578125 2.296875 -2.5 C 2.296875 -0.78125 1.9375 0.96875 0.703125 2.21875 C 0.5625 2.34375 0.5625 2.359375 0.5625 2.390625 C 0.5625 2.453125 0.609375 2.5 0.671875 2.5 C 0.765625 2.5 1.671875 1.8125 2.25 0.546875 C 2.765625 -0.546875 2.875 -1.65625 2.875 -2.5 Z M 2.875 -2.5 "
           id="path8642" />
      </symbol>
      <symbol
         overflow="visible"
         id="symbol8224">
        <path
           style="stroke:none;"
           d=""
           id="path3135" />
      </symbol>
      <symbol
         overflow="visible"
         id="symbol1689">
        <path
           style="stroke:none;"
           d="M 6.5625 -2.296875 C 6.734375 -2.296875 6.921875 -2.296875 6.921875 -2.5 C 6.921875 -2.6875 6.734375 -2.6875 6.5625 -2.6875 L 1.171875 -2.6875 C 1 -2.6875 0.828125 -2.6875 0.828125 -2.5 C 0.828125 -2.296875 1 -2.296875 1.171875 -2.296875 Z M 6.5625 -2.296875 "
           id="path4696" />
      </symbol>
    </g>
    <g
       id="g8411">
      <symbol
         overflow="visible"
         id="symbol9858">
        <path
           style="stroke:none;"
           d=""
           id="path2106" />
      </symbol>
      <symbol
         overflow="visible"
         id="symbol7153">
        <path
           style="stroke:none;"
           d="M 7.578125 -6.921875 C 7.578125 -6.953125 7.5625 -7.03125 7.46875 -7.03125 C 7.4375 -7.03125 7.421875 -7.015625 7.3125 -6.90625 L 6.625 -6.140625 C 6.53125 -6.28125 6.078125 -7.03125 4.96875 -7.03125 C 2.734375 -7.03125 0.5 -4.828125 0.5 -2.515625 C 0.5 -0.875 1.671875 0.21875 3.203125 0.21875 C 4.0625 0.21875 4.828125 -0.171875 5.359375 -0.640625 C 6.28125 -1.453125 6.453125 -2.359375 6.453125 -2.390625 C 6.453125 -2.5 6.34375 -2.5 6.328125 -2.5 C 6.265625 -2.5 6.21875 -2.46875 6.203125 -2.390625 C 6.109375 -2.109375 5.875 -1.390625 5.1875 -0.8125 C 4.5 -0.265625 3.875 -0.09375 3.359375 -0.09375 C 2.46875 -0.09375 1.40625 -0.609375 1.40625 -2.15625 C 1.40625 -2.734375 1.609375 -4.34375 2.609375 -5.515625 C 3.21875 -6.21875 4.15625 -6.71875 5.046875 -6.71875 C 6.0625 -6.71875 6.65625 -5.953125 6.65625 -4.796875 C 6.65625 -4.390625 6.625 -4.390625 6.625 -4.28125 C 6.625 -4.1875 6.734375 -4.1875 6.765625 -4.1875 C 6.890625 -4.1875 6.890625 -4.203125 6.953125 -4.390625 Z M 7.578125 -6.921875 "
           id="path5086" />
      </symbol>
      <symbol
         overflow="visible"
         id="symbol543">
        <path
           style="stroke:none;"
           d="M 2.03125 -0.015625 C 2.03125 -0.671875 1.78125 -1.0625 1.390625 -1.0625 C 1.0625 -1.0625 0.859375 -0.8125 0.859375 -0.53125 C 0.859375 -0.265625 1.0625 0 1.390625 0 C 1.5 0 1.640625 -0.046875 1.734375 -0.125 C 1.765625 -0.15625 1.78125 -0.15625 1.78125 -0.15625 C 1.796875 -0.15625 1.796875 -0.15625 1.796875 -0.015625 C 1.796875 0.734375 1.453125 1.328125 1.125 1.65625 C 1.015625 1.765625 1.015625 1.78125 1.015625 1.8125 C 1.015625 1.890625 1.0625 1.921875 1.109375 1.921875 C 1.21875 1.921875 2.03125 1.15625 2.03125 -0.015625 Z M 2.03125 -0.015625 "
           id="path8855" />
      </symbol>
      <symbol
         overflow="visible"
         id="symbol1831">
        <path
           style="stroke:none;"
           d=""
           id="path2347" />
      </symbol>
      <symbol
         overflow="visible"
         id="symbol2869">
        <path
           style="stroke:none;"
           d="M 6.84375 -3.265625 C 7 -3.265625 7.1875 -3.265625 7.1875 -3.453125 C 7.1875 -3.65625 7 -3.65625 6.859375 -3.65625 L 0.890625 -3.65625 C 0.75 -3.65625 0.5625 -3.65625 0.5625 -3.453125 C 0.5625 -3.265625 0.75 -3.265625 0.890625 -3.265625 Z M 6.859375 -1.328125 C 7 -1.328125 7.1875 -1.328125 7.1875 -1.53125 C 7.1875 -1.71875 7 -1.71875 6.84375 -1.71875 L 0.890625 -1.71875 C 0.75 -1.71875 0.5625 -1.71875 0.5625 -1.53125 C 0.5625 -1.328125 0.75 -1.328125 0.890625 -1.328125 Z M 6.859375 -1.328125 "
           id="path5507" />
      </symbol>
      <symbol
         overflow="visible"
         id="symbol8946">
        <path
           style="stroke:none;"
           d="M 3.296875 2.390625 C 3.296875 2.359375 3.296875 2.34375 3.125 2.171875 C 1.890625 0.921875 1.5625 -0.96875 1.5625 -2.5 C 1.5625 -4.234375 1.9375 -5.96875 3.171875 -7.203125 C 3.296875 -7.328125 3.296875 -7.34375 3.296875 -7.375 C 3.296875 -7.453125 3.265625 -7.484375 3.203125 -7.484375 C 3.09375 -7.484375 2.203125 -6.796875 1.609375 -5.53125 C 1.109375 -4.4375 0.984375 -3.328125 0.984375 -2.5 C 0.984375 -1.71875 1.09375 -0.515625 1.640625 0.625 C 2.25 1.84375 3.09375 2.5 3.203125 2.5 C 3.265625 2.5 3.296875 2.46875 3.296875 2.390625 Z M 3.296875 2.390625 "
           id="path2268" />
      </symbol>
      <symbol
         overflow="visible"
         id="symbol8141">
        <path
           style="stroke:none;"
           d="M 2.9375 -6.375 C 2.9375 -6.625 2.9375 -6.640625 2.703125 -6.640625 C 2.078125 -6 1.203125 -6 0.890625 -6 L 0.890625 -5.6875 C 1.09375 -5.6875 1.671875 -5.6875 2.1875 -5.953125 L 2.1875 -0.78125 C 2.1875 -0.421875 2.15625 -0.3125 1.265625 -0.3125 L 0.953125 -0.3125 L 0.953125 0 C 1.296875 -0.03125 2.15625 -0.03125 2.5625 -0.03125 C 2.953125 -0.03125 3.828125 -0.03125 4.171875 0 L 4.171875 -0.3125 L 3.859375 -0.3125 C 2.953125 -0.3125 2.9375 -0.421875 2.9375 -0.78125 Z M 2.9375 -6.375 "
           id="path1116" />
      </symbol>
      <symbol
         overflow="visible"
         id="symbol44">
        <path
           style="stroke:none;"
           d="M 2.875 -2.5 C 2.875 -3.265625 2.765625 -4.46875 2.21875 -5.609375 C 1.625 -6.828125 0.765625 -7.484375 0.671875 -7.484375 C 0.609375 -7.484375 0.5625 -7.4375 0.5625 -7.375 C 0.5625 -7.34375 0.5625 -7.328125 0.75 -7.140625 C 1.734375 -6.15625 2.296875 -4.578125 2.296875 -2.5 C 2.296875 -0.78125 1.9375 0.96875 0.703125 2.21875 C 0.5625 2.34375 0.5625 2.359375 0.5625 2.390625 C 0.5625 2.453125 0.609375 2.5 0.671875 2.5 C 0.765625 2.5 1.671875 1.8125 2.25 0.546875 C 2.765625 -0.546875 2.875 -1.65625 2.875 -2.5 Z M 2.875 -2.5 "
           id="path4936" />
      </symbol>
      <symbol
         overflow="visible"
         id="symbol1299">
        <path
           style="stroke:none;"
           d=""
           id="path9133" />
      </symbol>
      <symbol
         overflow="visible"
         id="symbol4445">
        <path
           style="stroke:none;"
           d="M 6.5625 -2.296875 C 6.734375 -2.296875 6.921875 -2.296875 6.921875 -2.5 C 6.921875 -2.6875 6.734375 -2.6875 6.5625 -2.6875 L 1.171875 -2.6875 C 1 -2.6875 0.828125 -2.6875 0.828125 -2.5 C 0.828125 -2.296875 1 -2.296875 1.171875 -2.296875 Z M 6.5625 -2.296875 "
           id="path1599" />
      </symbol>
    </g>
    <marker
       orient="auto"
       refY="0"
       refX="0"
       id="Arrow2Lend-3-5"
       style="overflow:visible">
      <path
         id="path838-6-9"
         style="fill:#000000;fill-opacity:1;fill-rule:evenodd;stroke:#000000;stroke-width:0.625;stroke-linejoin:round;stroke-opacity:1"
         d="M 8.7185878,4.0337352 -2.2072895,0.01601326 8.7185884,-4.0017078 c -1.7454984,2.3720609 -1.7354408,5.6174519 -6e-7,8.035443 z"
         transform="matrix(-1.1,0,0,-1.1,-1.1,0)" />
    </marker>
    <marker
       orient="auto"
       refY="0"
       refX="0"
       id="Arrow2Lend-3-5-6"
       style="overflow:visible">
      <path
         id="path838-6-9-4"
         style="fill:#000000;fill-opacity:1;fill-rule:evenodd;stroke:#000000;stroke-width:0.625;stroke-linejoin:round;stroke-opacity:1"
         d="M 8.7185878,4.0337352 -2.2072895,0.01601326 8.7185884,-4.0017078 c -1.7454984,2.3720609 -1.7354408,5.6174519 -6e-7,8.035443 z"
         transform="matrix(-1.1,0,0,-1.1,-1.1,0)" />
    </marker>
    <g
       id="g8667">
      <symbol
         overflow="visible"
         id="symbol1579">
        <path
           style="stroke:none;"
           d=""
           id="path1764" />
      </symbol>
      <symbol
         overflow="visible"
         id="symbol5956">
        <path
           style="stroke:none;"
           d="M 3.015625 -3.15625 L 4.71875 -3.15625 C 6.125 -3.15625 7.515625 -4.1875 7.515625 -5.296875 C 7.515625 -6.078125 6.859375 -6.8125 5.546875 -6.8125 L 2.328125 -6.8125 C 2.140625 -6.8125 2.03125 -6.8125 2.03125 -6.625 C 2.03125 -6.5 2.109375 -6.5 2.3125 -6.5 C 2.4375 -6.5 2.625 -6.484375 2.734375 -6.484375 C 2.90625 -6.453125 2.953125 -6.4375 2.953125 -6.3125 C 2.953125 -6.28125 2.953125 -6.25 2.921875 -6.125 L 1.578125 -0.78125 C 1.484375 -0.390625 1.46875 -0.3125 0.671875 -0.3125 C 0.515625 -0.3125 0.40625 -0.3125 0.40625 -0.125 C 0.40625 0 0.515625 0 0.546875 0 C 0.828125 0 1.53125 -0.03125 1.8125 -0.03125 C 2.03125 -0.03125 2.25 -0.015625 2.453125 -0.015625 C 2.671875 -0.015625 2.890625 0 3.09375 0 C 3.171875 0 3.296875 0 3.296875 -0.203125 C 3.296875 -0.3125 3.203125 -0.3125 3.015625 -0.3125 C 2.65625 -0.3125 2.375 -0.3125 2.375 -0.484375 C 2.375 -0.546875 2.390625 -0.59375 2.40625 -0.65625 Z M 3.734375 -6.125 C 3.828125 -6.46875 3.84375 -6.5 4.28125 -6.5 L 5.234375 -6.5 C 6.0625 -6.5 6.59375 -6.234375 6.59375 -5.546875 C 6.59375 -5.15625 6.390625 -4.296875 6 -3.9375 C 5.5 -3.484375 4.90625 -3.40625 4.46875 -3.40625 L 3.0625 -3.40625 Z M 3.734375 -6.125 "
           id="path3781" />
      </symbol>
    </g>
    <g
       id="g6583">
      <symbol
         overflow="visible"
         id="symbol5236">
        <path
           style="stroke:none;"
           d=""
           id="path1718" />
      </symbol>
      <symbol
         overflow="visible"
         id="symbol5395">
        <path
           style="stroke:none;"
           d="M 4.359375 -0.0625 C 5.90625 -0.640625 7.375 -2.421875 7.375 -4.34375 C 7.375 -5.953125 6.3125 -7.03125 4.828125 -7.03125 C 2.6875 -7.03125 0.484375 -4.765625 0.484375 -2.4375 C 0.484375 -0.78125 1.609375 0.21875 3.046875 0.21875 C 3.296875 0.21875 3.625 0.171875 4.015625 0.0625 C 3.984375 0.6875 3.984375 0.703125 3.984375 0.84375 C 3.984375 1.15625 3.984375 1.9375 4.8125 1.9375 C 5.984375 1.9375 6.46875 0.109375 6.46875 0 C 6.46875 -0.0625 6.40625 -0.09375 6.359375 -0.09375 C 6.28125 -0.09375 6.265625 -0.046875 6.234375 0.015625 C 6 0.71875 5.421875 0.96875 5.078125 0.96875 C 4.609375 0.96875 4.46875 0.703125 4.359375 -0.0625 Z M 2.484375 -0.140625 C 1.703125 -0.453125 1.359375 -1.21875 1.359375 -2.125 C 1.359375 -2.8125 1.625 -4.234375 2.375 -5.296875 C 3.109375 -6.3125 4.046875 -6.78125 4.78125 -6.78125 C 5.765625 -6.78125 6.5 -6 6.5 -4.671875 C 6.5 -3.671875 5.984375 -1.328125 4.3125 -0.40625 C 4.265625 -0.75 4.171875 -1.46875 3.4375 -1.46875 C 2.90625 -1.46875 2.421875 -0.984375 2.421875 -0.453125 C 2.421875 -0.265625 2.484375 -0.15625 2.484375 -0.140625 Z M 3.09375 -0.03125 C 2.953125 -0.03125 2.640625 -0.03125 2.640625 -0.453125 C 2.640625 -0.859375 3.015625 -1.25 3.4375 -1.25 C 3.859375 -1.25 4.046875 -1.015625 4.046875 -0.40625 C 4.046875 -0.265625 4.03125 -0.25 3.9375 -0.203125 C 3.671875 -0.09375 3.375 -0.03125 3.09375 -0.03125 Z M 3.09375 -0.03125 "
           id="path3646" />
      </symbol>
    </g>
    <g
       id="g7889">
      <symbol
         overflow="visible"
         id="symbol4428">
        <path
           style="stroke:none;"
           d=""
           id="path1240" />
      </symbol>
      <symbol
         overflow="visible"
         id="symbol6739">
        <path
           style="stroke:none;"
           d="M 1.578125 -7.125 C 1.578125 -7.296875 1.578125 -7.484375 1.390625 -7.484375 C 1.1875 -7.484375 1.1875 -7.296875 1.1875 -7.125 L 1.1875 2.140625 C 1.1875 2.3125 1.1875 2.5 1.390625 2.5 C 1.578125 2.5 1.578125 2.3125 1.578125 2.140625 Z M 1.578125 -7.125 "
           id="path5926" />
      </symbol>
      <symbol
         overflow="visible"
         id="symbol1890">
        <path
           style="stroke:none;"
           d="M 6.5625 -2.296875 C 6.734375 -2.296875 6.921875 -2.296875 6.921875 -2.5 C 6.921875 -2.6875 6.734375 -2.6875 6.5625 -2.6875 L 1.171875 -2.6875 C 1 -2.6875 0.828125 -2.6875 0.828125 -2.5 C 0.828125 -2.296875 1 -2.296875 1.171875 -2.296875 Z M 6.5625 -2.296875 "
           id="path6091" />
      </symbol>
      <symbol
         overflow="visible"
         id="symbol4301">
        <path
           style="stroke:none;"
           d=""
           id="path5693" />
      </symbol>
      <symbol
         overflow="visible"
         id="symbol1444">
        <path
           style="stroke:none;"
           d="M 3.015625 -3.15625 L 4.71875 -3.15625 C 6.125 -3.15625 7.515625 -4.1875 7.515625 -5.296875 C 7.515625 -6.078125 6.859375 -6.8125 5.546875 -6.8125 L 2.328125 -6.8125 C 2.140625 -6.8125 2.03125 -6.8125 2.03125 -6.625 C 2.03125 -6.5 2.109375 -6.5 2.3125 -6.5 C 2.4375 -6.5 2.625 -6.484375 2.734375 -6.484375 C 2.90625 -6.453125 2.953125 -6.4375 2.953125 -6.3125 C 2.953125 -6.28125 2.953125 -6.25 2.921875 -6.125 L 1.578125 -0.78125 C 1.484375 -0.390625 1.46875 -0.3125 0.671875 -0.3125 C 0.515625 -0.3125 0.40625 -0.3125 0.40625 -0.125 C 0.40625 0 0.515625 0 0.546875 0 C 0.828125 0 1.53125 -0.03125 1.8125 -0.03125 C 2.03125 -0.03125 2.25 -0.015625 2.453125 -0.015625 C 2.671875 -0.015625 2.890625 0 3.09375 0 C 3.171875 0 3.296875 0 3.296875 -0.203125 C 3.296875 -0.3125 3.203125 -0.3125 3.015625 -0.3125 C 2.65625 -0.3125 2.375 -0.3125 2.375 -0.484375 C 2.375 -0.546875 2.390625 -0.59375 2.40625 -0.65625 Z M 3.734375 -6.125 C 3.828125 -6.46875 3.84375 -6.5 4.28125 -6.5 L 5.234375 -6.5 C 6.0625 -6.5 6.59375 -6.234375 6.59375 -5.546875 C 6.59375 -5.15625 6.390625 -4.296875 6 -3.9375 C 5.5 -3.484375 4.90625 -3.40625 4.46875 -3.40625 L 3.0625 -3.40625 Z M 3.734375 -6.125 "
           id="path480" />
      </symbol>
      <symbol
         overflow="visible"
         id="symbol4633">
        <path
           style="stroke:none;"
           d="M 4.359375 -0.0625 C 5.90625 -0.640625 7.375 -2.421875 7.375 -4.34375 C 7.375 -5.953125 6.3125 -7.03125 4.828125 -7.03125 C 2.6875 -7.03125 0.484375 -4.765625 0.484375 -2.4375 C 0.484375 -0.78125 1.609375 0.21875 3.046875 0.21875 C 3.296875 0.21875 3.625 0.171875 4.015625 0.0625 C 3.984375 0.6875 3.984375 0.703125 3.984375 0.84375 C 3.984375 1.15625 3.984375 1.9375 4.8125 1.9375 C 5.984375 1.9375 6.46875 0.109375 6.46875 0 C 6.46875 -0.0625 6.40625 -0.09375 6.359375 -0.09375 C 6.28125 -0.09375 6.265625 -0.046875 6.234375 0.015625 C 6 0.71875 5.421875 0.96875 5.078125 0.96875 C 4.609375 0.96875 4.46875 0.703125 4.359375 -0.0625 Z M 2.484375 -0.140625 C 1.703125 -0.453125 1.359375 -1.21875 1.359375 -2.125 C 1.359375 -2.8125 1.625 -4.234375 2.375 -5.296875 C 3.109375 -6.3125 4.046875 -6.78125 4.78125 -6.78125 C 5.765625 -6.78125 6.5 -6 6.5 -4.671875 C 6.5 -3.671875 5.984375 -1.328125 4.3125 -0.40625 C 4.265625 -0.75 4.171875 -1.46875 3.4375 -1.46875 C 2.90625 -1.46875 2.421875 -0.984375 2.421875 -0.453125 C 2.421875 -0.265625 2.484375 -0.15625 2.484375 -0.140625 Z M 3.09375 -0.03125 C 2.953125 -0.03125 2.640625 -0.03125 2.640625 -0.453125 C 2.640625 -0.859375 3.015625 -1.25 3.4375 -1.25 C 3.859375 -1.25 4.046875 -1.015625 4.046875 -0.40625 C 4.046875 -0.265625 4.03125 -0.25 3.9375 -0.203125 C 3.671875 -0.09375 3.375 -0.03125 3.09375 -0.03125 Z M 3.09375 -0.03125 "
           id="path5035" />
      </symbol>
    </g>
    <g
       id="g2644">
      <symbol
         overflow="visible"
         id="symbol2835">
        <path
           style="stroke:none;"
           d=""
           id="path479" />
      </symbol>
      <symbol
         overflow="visible"
         id="symbol3383">
        <path
           style="stroke:none;"
           d="M 0.453125 1.21875 C 0.375 1.5625 0.34375 1.625 -0.09375 1.625 C -0.203125 1.625 -0.3125 1.625 -0.3125 1.8125 C -0.3125 1.890625 -0.265625 1.9375 -0.1875 1.9375 C 0.078125 1.9375 0.375 1.90625 0.640625 1.90625 C 0.984375 1.90625 1.3125 1.9375 1.640625 1.9375 C 1.6875 1.9375 1.8125 1.9375 1.8125 1.734375 C 1.8125 1.625 1.71875 1.625 1.578125 1.625 C 1.078125 1.625 1.078125 1.5625 1.078125 1.46875 C 1.078125 1.34375 1.5 -0.28125 1.5625 -0.53125 C 1.6875 -0.234375 1.96875 0.109375 2.484375 0.109375 C 3.640625 0.109375 4.890625 -1.34375 4.890625 -2.8125 C 4.890625 -3.75 4.3125 -4.40625 3.5625 -4.40625 C 3.0625 -4.40625 2.578125 -4.046875 2.25 -3.65625 C 2.15625 -4.203125 1.71875 -4.40625 1.359375 -4.40625 C 0.890625 -4.40625 0.703125 -4.015625 0.625 -3.84375 C 0.4375 -3.5 0.3125 -2.90625 0.3125 -2.875 C 0.3125 -2.765625 0.40625 -2.765625 0.421875 -2.765625 C 0.53125 -2.765625 0.53125 -2.78125 0.59375 -3 C 0.765625 -3.703125 0.96875 -4.1875 1.328125 -4.1875 C 1.5 -4.1875 1.640625 -4.109375 1.640625 -3.734375 C 1.640625 -3.5 1.609375 -3.390625 1.5625 -3.21875 Z M 2.203125 -3.109375 C 2.265625 -3.375 2.546875 -3.65625 2.71875 -3.8125 C 3.078125 -4.109375 3.359375 -4.1875 3.53125 -4.1875 C 3.921875 -4.1875 4.171875 -3.84375 4.171875 -3.25 C 4.171875 -2.65625 3.84375 -1.515625 3.65625 -1.140625 C 3.3125 -0.4375 2.84375 -0.109375 2.46875 -0.109375 C 1.8125 -0.109375 1.6875 -0.9375 1.6875 -1 C 1.6875 -1.015625 1.6875 -1.03125 1.71875 -1.15625 Z M 2.203125 -3.109375 "
           id="path9124" />
      </symbol>
      <symbol
         overflow="visible"
         id="symbol9878">
        <path
           style="stroke:none;"
           d=""
           id="path3860" />
      </symbol>
      <symbol
         overflow="visible"
         id="symbol6311">
        <path
           style="stroke:none;"
           d="M 1.734375 -0.734375 C 1.671875 -0.5 1.4375 -0.125 1.078125 -0.125 C 1.0625 -0.125 0.84375 -0.125 0.703125 -0.21875 C 0.984375 -0.3125 1.015625 -0.5625 1.015625 -0.609375 C 1.015625 -0.765625 0.890625 -0.859375 0.734375 -0.859375 C 0.53125 -0.859375 0.328125 -0.703125 0.328125 -0.4375 C 0.328125 -0.09375 0.71875 0.0625 1.0625 0.0625 C 1.390625 0.0625 1.671875 -0.125 1.84375 -0.421875 C 2.015625 -0.0625 2.390625 0.0625 2.671875 0.0625 C 3.484375 0.0625 3.90625 -0.796875 3.90625 -1 C 3.90625 -1.09375 3.8125 -1.09375 3.796875 -1.09375 C 3.6875 -1.09375 3.6875 -1.046875 3.65625 -0.96875 C 3.515625 -0.484375 3.09375 -0.125 2.703125 -0.125 C 2.421875 -0.125 2.28125 -0.3125 2.28125 -0.578125 C 2.28125 -0.765625 2.453125 -1.390625 2.640625 -2.171875 C 2.78125 -2.703125 3.09375 -2.875 3.328125 -2.875 C 3.34375 -2.875 3.546875 -2.875 3.703125 -2.78125 C 3.484375 -2.71875 3.390625 -2.515625 3.390625 -2.390625 C 3.390625 -2.25 3.515625 -2.140625 3.671875 -2.140625 C 3.828125 -2.140625 4.0625 -2.265625 4.0625 -2.5625 C 4.0625 -2.953125 3.609375 -3.078125 3.34375 -3.078125 C 2.984375 -3.078125 2.703125 -2.84375 2.5625 -2.578125 C 2.4375 -2.859375 2.109375 -3.078125 1.71875 -3.078125 C 0.9375 -3.078125 0.5 -2.21875 0.5 -2 C 0.5 -1.921875 0.59375 -1.921875 0.609375 -1.921875 C 0.703125 -1.921875 0.703125 -1.9375 0.75 -2.03125 C 0.921875 -2.578125 1.359375 -2.875 1.703125 -2.875 C 1.9375 -2.875 2.125 -2.75 2.125 -2.421875 C 2.125 -2.28125 2.03125 -1.9375 1.96875 -1.6875 Z M 1.734375 -0.734375 "
           id="path3566" />
      </symbol>
    </g>
    <g
       id="g7980">
      <symbol
         overflow="visible"
         id="symbol137">
        <path
           style="stroke:none;"
           d=""
           id="path4940" />
      </symbol>
      <symbol
         overflow="visible"
         id="symbol3675">
        <path
           style="stroke:none;"
           d="M 0.453125 1.21875 C 0.375 1.5625 0.34375 1.625 -0.09375 1.625 C -0.203125 1.625 -0.3125 1.625 -0.3125 1.8125 C -0.3125 1.890625 -0.265625 1.9375 -0.1875 1.9375 C 0.078125 1.9375 0.375 1.90625 0.640625 1.90625 C 0.984375 1.90625 1.3125 1.9375 1.640625 1.9375 C 1.6875 1.9375 1.8125 1.9375 1.8125 1.734375 C 1.8125 1.625 1.71875 1.625 1.578125 1.625 C 1.078125 1.625 1.078125 1.5625 1.078125 1.46875 C 1.078125 1.34375 1.5 -0.28125 1.5625 -0.53125 C 1.6875 -0.234375 1.96875 0.109375 2.484375 0.109375 C 3.640625 0.109375 4.890625 -1.34375 4.890625 -2.8125 C 4.890625 -3.75 4.3125 -4.40625 3.5625 -4.40625 C 3.0625 -4.40625 2.578125 -4.046875 2.25 -3.65625 C 2.15625 -4.203125 1.71875 -4.40625 1.359375 -4.40625 C 0.890625 -4.40625 0.703125 -4.015625 0.625 -3.84375 C 0.4375 -3.5 0.3125 -2.90625 0.3125 -2.875 C 0.3125 -2.765625 0.40625 -2.765625 0.421875 -2.765625 C 0.53125 -2.765625 0.53125 -2.78125 0.59375 -3 C 0.765625 -3.703125 0.96875 -4.1875 1.328125 -4.1875 C 1.5 -4.1875 1.640625 -4.109375 1.640625 -3.734375 C 1.640625 -3.5 1.609375 -3.390625 1.5625 -3.21875 Z M 2.203125 -3.109375 C 2.265625 -3.375 2.546875 -3.65625 2.71875 -3.8125 C 3.078125 -4.109375 3.359375 -4.1875 3.53125 -4.1875 C 3.921875 -4.1875 4.171875 -3.84375 4.171875 -3.25 C 4.171875 -2.65625 3.84375 -1.515625 3.65625 -1.140625 C 3.3125 -0.4375 2.84375 -0.109375 2.46875 -0.109375 C 1.8125 -0.109375 1.6875 -0.9375 1.6875 -1 C 1.6875 -1.015625 1.6875 -1.03125 1.71875 -1.15625 Z M 2.203125 -3.109375 "
           id="path2828" />
      </symbol>
      <symbol
         overflow="visible"
         id="symbol6098">
        <path
           style="stroke:none;"
           d=""
           id="path7847" />
      </symbol>
      <symbol
         overflow="visible"
         id="symbol2200">
        <path
           style="stroke:none;"
           d="M 3.875 -2.625 C 3.90625 -2.71875 3.90625 -2.734375 3.90625 -2.78125 C 3.90625 -2.921875 3.796875 -3 3.671875 -3 C 3.59375 -3 3.46875 -2.96875 3.390625 -2.84375 C 3.359375 -2.796875 3.3125 -2.578125 3.28125 -2.4375 L 3.125 -1.859375 C 3.09375 -1.6875 2.875 -0.8125 2.84375 -0.734375 C 2.84375 -0.734375 2.53125 -0.125 2 -0.125 C 1.515625 -0.125 1.515625 -0.578125 1.515625 -0.703125 C 1.515625 -1.078125 1.671875 -1.515625 1.890625 -2.0625 C 1.96875 -2.28125 2 -2.359375 2 -2.484375 C 2 -2.8125 1.71875 -3.078125 1.34375 -3.078125 C 0.640625 -3.078125 0.328125 -2.125 0.328125 -2 C 0.328125 -1.921875 0.421875 -1.921875 0.453125 -1.921875 C 0.546875 -1.921875 0.546875 -1.953125 0.578125 -2.03125 C 0.75 -2.609375 1.046875 -2.875 1.328125 -2.875 C 1.4375 -2.875 1.5 -2.796875 1.5 -2.640625 C 1.5 -2.46875 1.4375 -2.328125 1.40625 -2.234375 C 1.0625 -1.375 1 -1.125 1 -0.8125 C 1 -0.703125 1 -0.375 1.265625 -0.140625 C 1.484375 0.03125 1.78125 0.0625 1.96875 0.0625 C 2.25 0.0625 2.5 -0.03125 2.71875 -0.25 C 2.640625 0.140625 2.5625 0.4375 2.265625 0.78125 C 2.078125 1 1.796875 1.21875 1.421875 1.21875 C 1.375 1.21875 1.046875 1.21875 0.90625 1 C 1.28125 0.953125 1.28125 0.625 1.28125 0.609375 C 1.28125 0.390625 1.078125 0.34375 1.015625 0.34375 C 0.84375 0.34375 0.609375 0.484375 0.609375 0.8125 C 0.609375 1.15625 0.9375 1.421875 1.4375 1.421875 C 2.140625 1.421875 3 0.875 3.21875 0 Z M 3.875 -2.625 "
           id="path8131" />
      </symbol>
    </g>
    <g
       id="g8627">
      <symbol
         overflow="visible"
         id="symbol6409">
        <path
           style="stroke:none;"
           d=""
           id="path7837" />
      </symbol>
      <symbol
         overflow="visible"
         id="symbol6962">
        <path
           style="stroke:none;"
           d="M 4.5 -4.296875 C 4.5 -4.34375 4.46875 -4.390625 4.40625 -4.390625 C 4.296875 -4.390625 3.890625 -4 3.734375 -3.703125 C 3.515625 -4.25 3.125 -4.40625 2.796875 -4.40625 C 1.625 -4.40625 0.40625 -2.9375 0.40625 -1.484375 C 0.40625 -0.515625 0.984375 0.109375 1.71875 0.109375 C 2.140625 0.109375 2.53125 -0.125 2.890625 -0.484375 C 2.796875 -0.140625 2.46875 1.203125 2.4375 1.296875 C 2.359375 1.578125 2.28125 1.609375 1.71875 1.625 C 1.59375 1.625 1.5 1.625 1.5 1.828125 C 1.5 1.828125 1.5 1.9375 1.625 1.9375 C 1.9375 1.9375 2.296875 1.90625 2.625 1.90625 C 2.953125 1.90625 3.3125 1.9375 3.65625 1.9375 C 3.703125 1.9375 3.828125 1.9375 3.828125 1.734375 C 3.828125 1.625 3.734375 1.625 3.5625 1.625 C 3.09375 1.625 3.09375 1.5625 3.09375 1.46875 C 3.09375 1.390625 3.109375 1.328125 3.125 1.25 Z M 1.75 -0.109375 C 1.140625 -0.109375 1.109375 -0.875 1.109375 -1.046875 C 1.109375 -1.53125 1.390625 -2.609375 1.5625 -3.03125 C 1.875 -3.765625 2.390625 -4.1875 2.796875 -4.1875 C 3.453125 -4.1875 3.59375 -3.375 3.59375 -3.3125 C 3.59375 -3.25 3.046875 -1.0625 3.015625 -1.03125 C 2.859375 -0.75 2.296875 -0.109375 1.75 -0.109375 Z M 1.75 -0.109375 "
           id="path4427" />
      </symbol>
      <symbol
         overflow="visible"
         id="symbol9211">
        <path
           style="stroke:none;"
           d=""
           id="path1968" />
      </symbol>
      <symbol
         overflow="visible"
         id="symbol8787">
        <path
           style="stroke:none;"
           d="M 1.734375 -0.734375 C 1.671875 -0.5 1.4375 -0.125 1.078125 -0.125 C 1.0625 -0.125 0.84375 -0.125 0.703125 -0.21875 C 0.984375 -0.3125 1.015625 -0.5625 1.015625 -0.609375 C 1.015625 -0.765625 0.890625 -0.859375 0.734375 -0.859375 C 0.53125 -0.859375 0.328125 -0.703125 0.328125 -0.4375 C 0.328125 -0.09375 0.71875 0.0625 1.0625 0.0625 C 1.390625 0.0625 1.671875 -0.125 1.84375 -0.421875 C 2.015625 -0.0625 2.390625 0.0625 2.671875 0.0625 C 3.484375 0.0625 3.90625 -0.796875 3.90625 -1 C 3.90625 -1.09375 3.8125 -1.09375 3.796875 -1.09375 C 3.6875 -1.09375 3.6875 -1.046875 3.65625 -0.96875 C 3.515625 -0.484375 3.09375 -0.125 2.703125 -0.125 C 2.421875 -0.125 2.28125 -0.3125 2.28125 -0.578125 C 2.28125 -0.765625 2.453125 -1.390625 2.640625 -2.171875 C 2.78125 -2.703125 3.09375 -2.875 3.328125 -2.875 C 3.34375 -2.875 3.546875 -2.875 3.703125 -2.78125 C 3.484375 -2.71875 3.390625 -2.515625 3.390625 -2.390625 C 3.390625 -2.25 3.515625 -2.140625 3.671875 -2.140625 C 3.828125 -2.140625 4.0625 -2.265625 4.0625 -2.5625 C 4.0625 -2.953125 3.609375 -3.078125 3.34375 -3.078125 C 2.984375 -3.078125 2.703125 -2.84375 2.5625 -2.578125 C 2.4375 -2.859375 2.109375 -3.078125 1.71875 -3.078125 C 0.9375 -3.078125 0.5 -2.21875 0.5 -2 C 0.5 -1.921875 0.59375 -1.921875 0.609375 -1.921875 C 0.703125 -1.921875 0.703125 -1.9375 0.75 -2.03125 C 0.921875 -2.578125 1.359375 -2.875 1.703125 -2.875 C 1.9375 -2.875 2.125 -2.75 2.125 -2.421875 C 2.125 -2.28125 2.03125 -1.9375 1.96875 -1.6875 Z M 1.734375 -0.734375 "
           id="path570" />
      </symbol>
    </g>
    <g
       id="g3306">
      <symbol
         overflow="visible"
         id="symbol9528">
        <path
           style="stroke:none;"
           d=""
           id="path2185" />
      </symbol>
      <symbol
         overflow="visible"
         id="symbol7806">
        <path
           style="stroke:none;"
           d="M 4.5 -4.296875 C 4.5 -4.34375 4.46875 -4.390625 4.40625 -4.390625 C 4.296875 -4.390625 3.890625 -4 3.734375 -3.703125 C 3.515625 -4.25 3.125 -4.40625 2.796875 -4.40625 C 1.625 -4.40625 0.40625 -2.9375 0.40625 -1.484375 C 0.40625 -0.515625 0.984375 0.109375 1.71875 0.109375 C 2.140625 0.109375 2.53125 -0.125 2.890625 -0.484375 C 2.796875 -0.140625 2.46875 1.203125 2.4375 1.296875 C 2.359375 1.578125 2.28125 1.609375 1.71875 1.625 C 1.59375 1.625 1.5 1.625 1.5 1.828125 C 1.5 1.828125 1.5 1.9375 1.625 1.9375 C 1.9375 1.9375 2.296875 1.90625 2.625 1.90625 C 2.953125 1.90625 3.3125 1.9375 3.65625 1.9375 C 3.703125 1.9375 3.828125 1.9375 3.828125 1.734375 C 3.828125 1.625 3.734375 1.625 3.5625 1.625 C 3.09375 1.625 3.09375 1.5625 3.09375 1.46875 C 3.09375 1.390625 3.109375 1.328125 3.125 1.25 Z M 1.75 -0.109375 C 1.140625 -0.109375 1.109375 -0.875 1.109375 -1.046875 C 1.109375 -1.53125 1.390625 -2.609375 1.5625 -3.03125 C 1.875 -3.765625 2.390625 -4.1875 2.796875 -4.1875 C 3.453125 -4.1875 3.59375 -3.375 3.59375 -3.3125 C 3.59375 -3.25 3.046875 -1.0625 3.015625 -1.03125 C 2.859375 -0.75 2.296875 -0.109375 1.75 -0.109375 Z M 1.75 -0.109375 "
           id="path6034" />
      </symbol>
      <symbol
         overflow="visible"
         id="symbol5436">
        <path
           style="stroke:none;"
           d=""
           id="path5169" />
      </symbol>
      <symbol
         overflow="visible"
         id="symbol9854">
        <path
           style="stroke:none;"
           d="M 3.875 -2.625 C 3.90625 -2.71875 3.90625 -2.734375 3.90625 -2.78125 C 3.90625 -2.921875 3.796875 -3 3.671875 -3 C 3.59375 -3 3.46875 -2.96875 3.390625 -2.84375 C 3.359375 -2.796875 3.3125 -2.578125 3.28125 -2.4375 L 3.125 -1.859375 C 3.09375 -1.6875 2.875 -0.8125 2.84375 -0.734375 C 2.84375 -0.734375 2.53125 -0.125 2 -0.125 C 1.515625 -0.125 1.515625 -0.578125 1.515625 -0.703125 C 1.515625 -1.078125 1.671875 -1.515625 1.890625 -2.0625 C 1.96875 -2.28125 2 -2.359375 2 -2.484375 C 2 -2.8125 1.71875 -3.078125 1.34375 -3.078125 C 0.640625 -3.078125 0.328125 -2.125 0.328125 -2 C 0.328125 -1.921875 0.421875 -1.921875 0.453125 -1.921875 C 0.546875 -1.921875 0.546875 -1.953125 0.578125 -2.03125 C 0.75 -2.609375 1.046875 -2.875 1.328125 -2.875 C 1.4375 -2.875 1.5 -2.796875 1.5 -2.640625 C 1.5 -2.46875 1.4375 -2.328125 1.40625 -2.234375 C 1.0625 -1.375 1 -1.125 1 -0.8125 C 1 -0.703125 1 -0.375 1.265625 -0.140625 C 1.484375 0.03125 1.78125 0.0625 1.96875 0.0625 C 2.25 0.0625 2.5 -0.03125 2.71875 -0.25 C 2.640625 0.140625 2.5625 0.4375 2.265625 0.78125 C 2.078125 1 1.796875 1.21875 1.421875 1.21875 C 1.375 1.21875 1.046875 1.21875 0.90625 1 C 1.28125 0.953125 1.28125 0.625 1.28125 0.609375 C 1.28125 0.390625 1.078125 0.34375 1.015625 0.34375 C 0.84375 0.34375 0.609375 0.484375 0.609375 0.8125 C 0.609375 1.15625 0.9375 1.421875 1.4375 1.421875 C 2.140625 1.421875 3 0.875 3.21875 0 Z M 3.875 -2.625 "
           id="path219" />
      </symbol>
    </g>
    <g
       id="g6284">
      <symbol
         overflow="visible"
         id="symbol8574">
        <path
           style="stroke:none;"
           d=""
           id="path6098" />
      </symbol>
      <symbol
         overflow="visible"
         id="symbol5362">
        <path
           style="stroke:none;"
           d="M 0.453125 1.21875 C 0.375 1.5625 0.34375 1.625 -0.09375 1.625 C -0.203125 1.625 -0.3125 1.625 -0.3125 1.8125 C -0.3125 1.890625 -0.265625 1.9375 -0.1875 1.9375 C 0.078125 1.9375 0.375 1.90625 0.640625 1.90625 C 0.984375 1.90625 1.3125 1.9375 1.640625 1.9375 C 1.6875 1.9375 1.8125 1.9375 1.8125 1.734375 C 1.8125 1.625 1.71875 1.625 1.578125 1.625 C 1.078125 1.625 1.078125 1.5625 1.078125 1.46875 C 1.078125 1.34375 1.5 -0.28125 1.5625 -0.53125 C 1.6875 -0.234375 1.96875 0.109375 2.484375 0.109375 C 3.640625 0.109375 4.890625 -1.34375 4.890625 -2.8125 C 4.890625 -3.75 4.3125 -4.40625 3.5625 -4.40625 C 3.0625 -4.40625 2.578125 -4.046875 2.25 -3.65625 C 2.15625 -4.203125 1.71875 -4.40625 1.359375 -4.40625 C 0.890625 -4.40625 0.703125 -4.015625 0.625 -3.84375 C 0.4375 -3.5 0.3125 -2.90625 0.3125 -2.875 C 0.3125 -2.765625 0.40625 -2.765625 0.421875 -2.765625 C 0.53125 -2.765625 0.53125 -2.78125 0.59375 -3 C 0.765625 -3.703125 0.96875 -4.1875 1.328125 -4.1875 C 1.5 -4.1875 1.640625 -4.109375 1.640625 -3.734375 C 1.640625 -3.5 1.609375 -3.390625 1.5625 -3.21875 Z M 2.203125 -3.109375 C 2.265625 -3.375 2.546875 -3.65625 2.71875 -3.8125 C 3.078125 -4.109375 3.359375 -4.1875 3.53125 -4.1875 C 3.921875 -4.1875 4.171875 -3.84375 4.171875 -3.25 C 4.171875 -2.65625 3.84375 -1.515625 3.65625 -1.140625 C 3.3125 -0.4375 2.84375 -0.109375 2.46875 -0.109375 C 1.8125 -0.109375 1.6875 -0.9375 1.6875 -1 C 1.6875 -1.015625 1.6875 -1.03125 1.71875 -1.15625 Z M 2.203125 -3.109375 "
           id="path7725" />
      </symbol>
      <symbol
         overflow="visible"
         id="symbol5731">
        <path
           style="stroke:none;"
           d="M 4.5 -4.296875 C 4.5 -4.34375 4.46875 -4.390625 4.40625 -4.390625 C 4.296875 -4.390625 3.890625 -4 3.734375 -3.703125 C 3.515625 -4.25 3.125 -4.40625 2.796875 -4.40625 C 1.625 -4.40625 0.40625 -2.9375 0.40625 -1.484375 C 0.40625 -0.515625 0.984375 0.109375 1.71875 0.109375 C 2.140625 0.109375 2.53125 -0.125 2.890625 -0.484375 C 2.796875 -0.140625 2.46875 1.203125 2.4375 1.296875 C 2.359375 1.578125 2.28125 1.609375 1.71875 1.625 C 1.59375 1.625 1.5 1.625 1.5 1.828125 C 1.5 1.828125 1.5 1.9375 1.625 1.9375 C 1.9375 1.9375 2.296875 1.90625 2.625 1.90625 C 2.953125 1.90625 3.3125 1.9375 3.65625 1.9375 C 3.703125 1.9375 3.828125 1.9375 3.828125 1.734375 C 3.828125 1.625 3.734375 1.625 3.5625 1.625 C 3.09375 1.625 3.09375 1.5625 3.09375 1.46875 C 3.09375 1.390625 3.109375 1.328125 3.125 1.25 Z M 1.75 -0.109375 C 1.140625 -0.109375 1.109375 -0.875 1.109375 -1.046875 C 1.109375 -1.53125 1.390625 -2.609375 1.5625 -3.03125 C 1.875 -3.765625 2.390625 -4.1875 2.796875 -4.1875 C 3.453125 -4.1875 3.59375 -3.375 3.59375 -3.3125 C 3.59375 -3.25 3.046875 -1.0625 3.015625 -1.03125 C 2.859375 -0.75 2.296875 -0.109375 1.75 -0.109375 Z M 1.75 -0.109375 "
           id="path8702" />
      </symbol>
      <symbol
         overflow="visible"
         id="symbol2066">
        <path
           style="stroke:none;"
           d=""
           id="path2569" />
      </symbol>
      <symbol
         overflow="visible"
         id="symbol4407">
        <path
           style="stroke:none;"
           d="M 3.875 -2.625 C 3.90625 -2.71875 3.90625 -2.734375 3.90625 -2.78125 C 3.90625 -2.921875 3.796875 -3 3.671875 -3 C 3.59375 -3 3.46875 -2.96875 3.390625 -2.84375 C 3.359375 -2.796875 3.3125 -2.578125 3.28125 -2.4375 L 3.125 -1.859375 C 3.09375 -1.6875 2.875 -0.8125 2.84375 -0.734375 C 2.84375 -0.734375 2.53125 -0.125 2 -0.125 C 1.515625 -0.125 1.515625 -0.578125 1.515625 -0.703125 C 1.515625 -1.078125 1.671875 -1.515625 1.890625 -2.0625 C 1.96875 -2.28125 2 -2.359375 2 -2.484375 C 2 -2.8125 1.71875 -3.078125 1.34375 -3.078125 C 0.640625 -3.078125 0.328125 -2.125 0.328125 -2 C 0.328125 -1.921875 0.421875 -1.921875 0.453125 -1.921875 C 0.546875 -1.921875 0.546875 -1.953125 0.578125 -2.03125 C 0.75 -2.609375 1.046875 -2.875 1.328125 -2.875 C 1.4375 -2.875 1.5 -2.796875 1.5 -2.640625 C 1.5 -2.46875 1.4375 -2.328125 1.40625 -2.234375 C 1.0625 -1.375 1 -1.125 1 -0.8125 C 1 -0.703125 1 -0.375 1.265625 -0.140625 C 1.484375 0.03125 1.78125 0.0625 1.96875 0.0625 C 2.25 0.0625 2.5 -0.03125 2.71875 -0.25 C 2.640625 0.140625 2.5625 0.4375 2.265625 0.78125 C 2.078125 1 1.796875 1.21875 1.421875 1.21875 C 1.375 1.21875 1.046875 1.21875 0.90625 1 C 1.28125 0.953125 1.28125 0.625 1.28125 0.609375 C 1.28125 0.390625 1.078125 0.34375 1.015625 0.34375 C 0.84375 0.34375 0.609375 0.484375 0.609375 0.8125 C 0.609375 1.15625 0.9375 1.421875 1.4375 1.421875 C 2.140625 1.421875 3 0.875 3.21875 0 Z M 3.875 -2.625 "
           id="path8995" />
      </symbol>
      <symbol
         overflow="visible"
         id="symbol2448">
        <path
           style="stroke:none;"
           d=""
           id="path4535" />
      </symbol>
      <symbol
         overflow="visible"
         id="symbol2286">
        <path
           style="stroke:none;"
           d="M 6.5625 -2.296875 C 6.734375 -2.296875 6.921875 -2.296875 6.921875 -2.5 C 6.921875 -2.6875 6.734375 -2.6875 6.5625 -2.6875 L 1.171875 -2.6875 C 1 -2.6875 0.828125 -2.6875 0.828125 -2.5 C 0.828125 -2.296875 1 -2.296875 1.171875 -2.296875 Z M 6.5625 -2.296875 "
           id="path7025" />
      </symbol>
    </g>
    <g
       id="g398">
      <symbol
         overflow="visible"
         id="symbol502">
        <path
           style="stroke:none;"
           d=""
           id="path7310" />
      </symbol>
      <symbol
         overflow="visible"
         id="symbol808">
        <path
           style="stroke:none;"
           d="M 0.453125 1.21875 C 0.375 1.5625 0.34375 1.625 -0.09375 1.625 C -0.203125 1.625 -0.3125 1.625 -0.3125 1.8125 C -0.3125 1.890625 -0.265625 1.9375 -0.1875 1.9375 C 0.078125 1.9375 0.375 1.90625 0.640625 1.90625 C 0.984375 1.90625 1.3125 1.9375 1.640625 1.9375 C 1.6875 1.9375 1.8125 1.9375 1.8125 1.734375 C 1.8125 1.625 1.71875 1.625 1.578125 1.625 C 1.078125 1.625 1.078125 1.5625 1.078125 1.46875 C 1.078125 1.34375 1.5 -0.28125 1.5625 -0.53125 C 1.6875 -0.234375 1.96875 0.109375 2.484375 0.109375 C 3.640625 0.109375 4.890625 -1.34375 4.890625 -2.8125 C 4.890625 -3.75 4.3125 -4.40625 3.5625 -4.40625 C 3.0625 -4.40625 2.578125 -4.046875 2.25 -3.65625 C 2.15625 -4.203125 1.71875 -4.40625 1.359375 -4.40625 C 0.890625 -4.40625 0.703125 -4.015625 0.625 -3.84375 C 0.4375 -3.5 0.3125 -2.90625 0.3125 -2.875 C 0.3125 -2.765625 0.40625 -2.765625 0.421875 -2.765625 C 0.53125 -2.765625 0.53125 -2.78125 0.59375 -3 C 0.765625 -3.703125 0.96875 -4.1875 1.328125 -4.1875 C 1.5 -4.1875 1.640625 -4.109375 1.640625 -3.734375 C 1.640625 -3.5 1.609375 -3.390625 1.5625 -3.21875 Z M 2.203125 -3.109375 C 2.265625 -3.375 2.546875 -3.65625 2.71875 -3.8125 C 3.078125 -4.109375 3.359375 -4.1875 3.53125 -4.1875 C 3.921875 -4.1875 4.171875 -3.84375 4.171875 -3.25 C 4.171875 -2.65625 3.84375 -1.515625 3.65625 -1.140625 C 3.3125 -0.4375 2.84375 -0.109375 2.46875 -0.109375 C 1.8125 -0.109375 1.6875 -0.9375 1.6875 -1 C 1.6875 -1.015625 1.6875 -1.03125 1.71875 -1.15625 Z M 2.203125 -3.109375 "
           id="path8108" />
      </symbol>
      <symbol
         overflow="visible"
         id="symbol8523">
        <path
           style="stroke:none;"
           d="M 4.5 -4.296875 C 4.5 -4.34375 4.46875 -4.390625 4.40625 -4.390625 C 4.296875 -4.390625 3.890625 -4 3.734375 -3.703125 C 3.515625 -4.25 3.125 -4.40625 2.796875 -4.40625 C 1.625 -4.40625 0.40625 -2.9375 0.40625 -1.484375 C 0.40625 -0.515625 0.984375 0.109375 1.71875 0.109375 C 2.140625 0.109375 2.53125 -0.125 2.890625 -0.484375 C 2.796875 -0.140625 2.46875 1.203125 2.4375 1.296875 C 2.359375 1.578125 2.28125 1.609375 1.71875 1.625 C 1.59375 1.625 1.5 1.625 1.5 1.828125 C 1.5 1.828125 1.5 1.9375 1.625 1.9375 C 1.9375 1.9375 2.296875 1.90625 2.625 1.90625 C 2.953125 1.90625 3.3125 1.9375 3.65625 1.9375 C 3.703125 1.9375 3.828125 1.9375 3.828125 1.734375 C 3.828125 1.625 3.734375 1.625 3.5625 1.625 C 3.09375 1.625 3.09375 1.5625 3.09375 1.46875 C 3.09375 1.390625 3.109375 1.328125 3.125 1.25 Z M 1.75 -0.109375 C 1.140625 -0.109375 1.109375 -0.875 1.109375 -1.046875 C 1.109375 -1.53125 1.390625 -2.609375 1.5625 -3.03125 C 1.875 -3.765625 2.390625 -4.1875 2.796875 -4.1875 C 3.453125 -4.1875 3.59375 -3.375 3.59375 -3.3125 C 3.59375 -3.25 3.046875 -1.0625 3.015625 -1.03125 C 2.859375 -0.75 2.296875 -0.109375 1.75 -0.109375 Z M 1.75 -0.109375 "
           id="path1239" />
      </symbol>
      <symbol
         overflow="visible"
         id="symbol6376">
        <path
           style="stroke:none;"
           d=""
           id="path8412" />
      </symbol>
      <symbol
         overflow="visible"
         id="symbol2773">
        <path
           style="stroke:none;"
           d="M 1.734375 -0.734375 C 1.671875 -0.5 1.4375 -0.125 1.078125 -0.125 C 1.0625 -0.125 0.84375 -0.125 0.703125 -0.21875 C 0.984375 -0.3125 1.015625 -0.5625 1.015625 -0.609375 C 1.015625 -0.765625 0.890625 -0.859375 0.734375 -0.859375 C 0.53125 -0.859375 0.328125 -0.703125 0.328125 -0.4375 C 0.328125 -0.09375 0.71875 0.0625 1.0625 0.0625 C 1.390625 0.0625 1.671875 -0.125 1.84375 -0.421875 C 2.015625 -0.0625 2.390625 0.0625 2.671875 0.0625 C 3.484375 0.0625 3.90625 -0.796875 3.90625 -1 C 3.90625 -1.09375 3.8125 -1.09375 3.796875 -1.09375 C 3.6875 -1.09375 3.6875 -1.046875 3.65625 -0.96875 C 3.515625 -0.484375 3.09375 -0.125 2.703125 -0.125 C 2.421875 -0.125 2.28125 -0.3125 2.28125 -0.578125 C 2.28125 -0.765625 2.453125 -1.390625 2.640625 -2.171875 C 2.78125 -2.703125 3.09375 -2.875 3.328125 -2.875 C 3.34375 -2.875 3.546875 -2.875 3.703125 -2.78125 C 3.484375 -2.71875 3.390625 -2.515625 3.390625 -2.390625 C 3.390625 -2.25 3.515625 -2.140625 3.671875 -2.140625 C 3.828125 -2.140625 4.0625 -2.265625 4.0625 -2.5625 C 4.0625 -2.953125 3.609375 -3.078125 3.34375 -3.078125 C 2.984375 -3.078125 2.703125 -2.84375 2.5625 -2.578125 C 2.4375 -2.859375 2.109375 -3.078125 1.71875 -3.078125 C 0.9375 -3.078125 0.5 -2.21875 0.5 -2 C 0.5 -1.921875 0.59375 -1.921875 0.609375 -1.921875 C 0.703125 -1.921875 0.703125 -1.9375 0.75 -2.03125 C 0.921875 -2.578125 1.359375 -2.875 1.703125 -2.875 C 1.9375 -2.875 2.125 -2.75 2.125 -2.421875 C 2.125 -2.28125 2.03125 -1.9375 1.96875 -1.6875 Z M 1.734375 -0.734375 "
           id="path9862" />
      </symbol>
      <symbol
         overflow="visible"
         id="symbol9772">
        <path
           style="stroke:none;"
           d=""
           id="path8434" />
      </symbol>
      <symbol
         overflow="visible"
         id="symbol8370">
        <path
           style="stroke:none;"
           d="M 6.5625 -2.296875 C 6.734375 -2.296875 6.921875 -2.296875 6.921875 -2.5 C 6.921875 -2.6875 6.734375 -2.6875 6.5625 -2.6875 L 1.171875 -2.6875 C 1 -2.6875 0.828125 -2.6875 0.828125 -2.5 C 0.828125 -2.296875 1 -2.296875 1.171875 -2.296875 Z M 6.5625 -2.296875 "
           id="path8572" />
      </symbol>
    </g>
  </defs>
  <metadata
     id="metadata5">
    <rdf:RDF>
      <cc:Work
         rdf:about="">
        <dc:format>image/svg+xml</dc:format>
        <dc:type
           rdf:resource="http://purl.org/dc/dcmitype/StillImage" />
        <dc:title></dc:title>
      </cc:Work>
    </rdf:RDF>
  </metadata>
  <g
     id="layer1"
     transform="translate(309.27527,36.249348)">
    <rect
       style="opacity:1;fill:#ffffff;fill-opacity:1;fill-rule:nonzero;stroke:none;stroke-width:0.28167;stroke-linecap:round;stroke-linejoin:bevel;stroke-miterlimit:4;stroke-dasharray:none;stroke-dashoffset:0;stroke-opacity:1"
       id="rect3064-5"
       width="120"
       height="120"
       x="-309.27527"
       y="-36.249348"
       rx="2.2677155"
       ry="2.2390881" />
    <g
       id="g21296">
      <path
         id="path9059-7-5-8"
         d="M -262.50448,79.313155 V -26.527264"
         style="fill:none;fill-rule:evenodd;stroke:#e6e6e6;stroke-width:0.4;stroke-linecap:butt;stroke-linejoin:miter;stroke-miterlimit:4;stroke-dasharray:none;stroke-opacity:1" />
      <path
         id="path9059-7-5"
         d="M -241.3378,79.313155 V -26.527264"
         style="fill:none;fill-rule:evenodd;stroke:#e6e6e6;stroke-width:0.4;stroke-linecap:butt;stroke-linejoin:miter;stroke-miterlimit:4;stroke-dasharray:none;stroke-opacity:1" />
      <path
         id="path9059-7-5-8-4"
         d="M -273.08782,79.313155 V -26.527264"
         style="fill:none;fill-rule:evenodd;stroke:#e6e6e6;stroke-width:0.4;stroke-linecap:butt;stroke-linejoin:miter;stroke-miterlimit:4;stroke-dasharray:none;stroke-opacity:1" />
      <path
         id="path9059-7-5-81"
         d="M -230.75446,79.313155 V -26.527264"
         style="fill:none;fill-rule:evenodd;stroke:#e6e6e6;stroke-width:0.4;stroke-linecap:butt;stroke-linejoin:miter;stroke-miterlimit:4;stroke-dasharray:none;stroke-opacity:1" />
      <path
         id="path9059-7-5-0"
         d="M -220.17112,79.313155 V -26.527264"
         style="fill:none;fill-rule:evenodd;stroke:#e6e6e6;stroke-width:0.4;stroke-linecap:butt;stroke-linejoin:miter;stroke-miterlimit:4;stroke-dasharray:none;stroke-opacity:1" />
      <path
         id="path9059-7-5-81-3"
         d="M -209.58778,79.313155 V -26.527264"
         style="fill:none;fill-rule:evenodd;stroke:#e6e6e6;stroke-width:0.4;stroke-linecap:butt;stroke-linejoin:miter;stroke-miterlimit:4;stroke-dasharray:none;stroke-opacity:1" />
      <path
         id="path9059-7-5-8-0"
         d="M -283.67116,79.313155 V -26.527264"
         style="fill:none;fill-rule:evenodd;stroke:#e6e6e6;stroke-width:0.4;stroke-linecap:butt;stroke-linejoin:miter;stroke-miterlimit:4;stroke-dasharray:none;stroke-opacity:1" />
      <path
         id="path9059-7-5-8-4-4"
         d="M -294.2545,79.313155 V -26.527264"
         style="fill:none;fill-rule:evenodd;stroke:#e6e6e6;stroke-width:0.4;stroke-linecap:butt;stroke-linejoin:miter;stroke-miterlimit:4;stroke-dasharray:none;stroke-opacity:1" />
      <path
         id="path9059-7-5-8-44"
         d="m -199.00444,36.972773 h -105.8334"
         style="fill:none;fill-rule:evenodd;stroke:#e6e6e6;stroke-width:0.4;stroke-linecap:butt;stroke-linejoin:miter;stroke-miterlimit:4;stroke-dasharray:none;stroke-opacity:1" />
      <path
         id="path9059-7-5-4"
         d="m -199.00444,15.806092 h -105.8334"
         style="fill:none;fill-rule:evenodd;stroke:#e6e6e6;stroke-width:0.4;stroke-linecap:butt;stroke-linejoin:miter;stroke-miterlimit:4;stroke-dasharray:none;stroke-opacity:1" />
      <path
         id="path9059-7-5-8-4-7"
         d="m -199.00444,47.556113 h -105.8334"
         style="fill:none;fill-rule:evenodd;stroke:#e6e6e6;stroke-width:0.4;stroke-linecap:butt;stroke-linejoin:miter;stroke-miterlimit:4;stroke-dasharray:none;stroke-opacity:1" />
      <path
         id="path9059-7-5-81-6"
         d="m -199.00444,5.2227514 h -105.8334"
         style="fill:none;fill-rule:evenodd;stroke:#e6e6e6;stroke-width:0.4;stroke-linecap:butt;stroke-linejoin:miter;stroke-miterlimit:4;stroke-dasharray:none;stroke-opacity:1" />
      <path
         id="path9059-7-5-0-3"
         d="m -199.00444,-5.3605873 h -105.8334"
         style="fill:none;fill-rule:evenodd;stroke:#e6e6e6;stroke-width:0.4;stroke-linecap:butt;stroke-linejoin:miter;stroke-miterlimit:4;stroke-dasharray:none;stroke-opacity:1" />
      <path
         id="path9059-7-5-81-3-1"
         d="m -199.00444,-15.94393 h -105.8334"
         style="fill:none;fill-rule:evenodd;stroke:#e6e6e6;stroke-width:0.4;stroke-linecap:butt;stroke-linejoin:miter;stroke-miterlimit:4;stroke-dasharray:none;stroke-opacity:1" />
      <path
         id="path9059-7-5-8-0-7"
         d="m -199.00444,58.139453 h -105.8334"
         style="fill:none;fill-rule:evenodd;stroke:#e6e6e6;stroke-width:0.4;stroke-linecap:butt;stroke-linejoin:miter;stroke-miterlimit:4;stroke-dasharray:none;stroke-opacity:1" />
      <path
         id="path9059-7-5-8-44-1"
         d="m -199.00444,68.729821 h -105.8334"
         style="fill:none;fill-rule:evenodd;stroke:#e6e6e6;stroke-width:0.4;stroke-linecap:butt;stroke-linejoin:miter;stroke-miterlimit:4;stroke-dasharray:none;stroke-opacity:1" />
      <path
         id="path9059-7"
         d="M -294.2545,79.313155 V -31.818931"
         style="fill:#4d4d4d;fill-rule:evenodd;stroke:#4d4d4d;stroke-width:0.40000001;stroke-linecap:butt;stroke-linejoin:miter;stroke-miterlimit:4;stroke-dasharray:none;stroke-opacity:1;marker-end:url(#Arrow2Lend-3)" />
      <path
         id="path9059"
         d="m -304.83784,68.729821 h 111.12508"
         style="fill:#4d4d4d;fill-rule:evenodd;stroke:#4d4d4d;stroke-width:0.40000001;stroke-linecap:butt;stroke-linejoin:miter;stroke-miterlimit:4;stroke-dasharray:none;stroke-opacity:1;marker-end:url(#Arrow2Lend)" />
      <circle
         r="1.3615835"
         cy="68.72982"
         cx="-294.25449"
         id="path1960-9-7-5"
         style="fill:#4d4d4d;stroke:none;stroke-width:0.407821;fill-opacity:1" />
      <g
         id="g5309"
         transform="matrix(0.70001162,0,0,0.70001162,-261.86177,18.34777)">
        <g
           id="g4242">
          <g
             id="g9948"
             style="fill:#000000;fill-opacity:1">
            <use
               height="100%"
               width="100%"
               id="use6841"
               y="81.962997"
               x="91.925003"
               xlink:href="#symbol3118" />
          </g>
        </g>
      </g>
      <g
         id="g5395"
         transform="matrix(0.70001162,0,0,0.70001162,-365.67166,-86.464534)">
        <g
           id="g1141">
          <g
             id="g550"
             style="fill:#000000;fill-opacity:1">
            <use
               height="100%"
               width="100%"
               id="use613"
               y="81.962997"
               x="91.925003"
               xlink:href="#symbol4464" />
          </g>
        </g>
      </g>
      <path
         id="path9059-7-5-8-44-9"
         d="m -199.00444,26.389439 h -105.8334"
         style="fill:none;fill-rule:evenodd;stroke:#e6e6e6;stroke-width:0.40000001;stroke-linecap:butt;stroke-linejoin:miter;stroke-miterlimit:4;stroke-dasharray:none;stroke-opacity:1" />
      <path
         id="path9059-7-5-3"
         d="M -251.92114,79.309647 V -26.530769"
         style="fill:none;fill-rule:evenodd;stroke:#e6e6e6;stroke-width:0.40000001;stroke-linecap:butt;stroke-linejoin:miter;stroke-miterlimit:4;stroke-dasharray:none;stroke-opacity:1" />
    </g>
    <circle
       style="fill:#000000;stroke:none;stroke-width:0.407821"
       id="path1960-9"
       cx="-283.67117"
       cy="36.972775"
       r="1.3615835" />
    <circle
       style="fill:#000000;stroke:none;stroke-width:0.407821"
       id="path1960-9-7"
       cx="-230.75446"
       cy="-5.3605886"
       r="1.3615835" />
    <path
       style="fill:#000000;fill-rule:evenodd;stroke:#000000;stroke-width:0.40000001;stroke-linecap:butt;stroke-linejoin:miter;stroke-miterlimit:4;stroke-dasharray:none;stroke-opacity:1"
       d="m -283.67115,36.972771 52.91669,-42.3333583"
       id="path9059-7-0" />
    <path
       style="fill:#000000;fill-rule:evenodd;stroke:#000000;stroke-width:0.40000001;stroke-linecap:butt;stroke-linejoin:miter;stroke-miterlimit:4;stroke-dasharray:1.59999999, 1.59999999;stroke-dashoffset:0;stroke-opacity:1"
       d="m -294.2545,-5.3605873 h 63.50004"
       id="path9059-7-0-0" />
    <path
       style="fill:#000000;fill-rule:evenodd;stroke:#000000;stroke-width:0.40000001;stroke-linecap:butt;stroke-linejoin:miter;stroke-miterlimit:4;stroke-dasharray:1.60000001, 1.60000001;stroke-dashoffset:0;stroke-opacity:1"
       d="M -230.75446,68.729821 V -5.3605873"
       id="path9059-7-0-0-3" />
    <path
       style="fill:#000000;fill-rule:evenodd;stroke:#000000;stroke-width:0.40000001;stroke-linecap:butt;stroke-linejoin:miter;stroke-miterlimit:4;stroke-dasharray:1.60000003, 1.60000003;stroke-dashoffset:0;stroke-opacity:1"
       d="M -283.67116,68.729821 V 36.972773"
       id="path9059-7-0-0-3-3" />
    <path
       style="fill:#000000;fill-rule:evenodd;stroke:#000000;stroke-width:0.40000001;stroke-linecap:butt;stroke-linejoin:miter;stroke-miterlimit:4;stroke-dasharray:1.60000005, 1.60000005;stroke-dashoffset:0;stroke-opacity:1"
       d="m -294.2545,36.972773 63.50004,0"
       id="path9059-7-0-0-3-3-4" />
    <rect
       style="opacity:1;fill:none;fill-opacity:1;fill-rule:nonzero;stroke:#000000;stroke-width:0.40000001;stroke-linecap:round;stroke-linejoin:round;stroke-miterlimit:4;stroke-dasharray:none;stroke-dashoffset:0;stroke-opacity:1"
       id="rect21471"
       width="4.6070418"
       height="4.6070418"
       x="-235.3615"
       y="32.365734" />
    <g
       transform="matrix(0.7,0,0,0.7,-297.98657,-65.786929)"
       id="g8642">
      <g
         id="g3827">
        <g
           style="fill:#000000;fill-opacity:1"
           id="g8281">
          <use
             xlink:href="#symbol5956"
             x="91.925003"
             y="81.962997"
             id="use4625"
             width="100%"
             height="100%" />
        </g>
      </g>
    </g>
    <g
       transform="matrix(0.7,0,0,0.7,-352.00526,-25.494203)"
       id="g8828">
      <g
         id="g6397">
        <g
           style="fill:#000000;fill-opacity:1"
           id="g5653">
          <use
             xlink:href="#symbol5395"
             x="91.925003"
             y="81.962997"
             id="use3941"
             width="100%"
             height="100%" />
        </g>
      </g>
    </g>
    <g
       transform="matrix(0.7,0,0,0.7,-345.23178,-45.217316)"
       id="g9039">
      <g
         id="g1255">
        <g
           style="fill:#000000;fill-opacity:1"
           id="g2540">
          <use
             xlink:href="#symbol6739"
             x="91.925003"
             y="81.962997"
             id="use9945"
             width="100%"
             height="100%" />
        </g>
        <g
           style="fill:#000000;fill-opacity:1"
           id="g8487">
          <use
             xlink:href="#symbol1444"
             x="94.693001"
             y="81.962997"
             id="use3993"
             width="100%"
             height="100%" />
        </g>
        <g
           style="fill:#000000;fill-opacity:1"
           id="g6949">
          <use
             xlink:href="#symbol1890"
             x="104.686"
             y="81.962997"
             id="use6143"
             width="100%"
             height="100%" />
        </g>
        <g
           style="fill:#000000;fill-opacity:1"
           id="g1677">
          <use
             xlink:href="#symbol4633"
             x="114.649"
             y="81.962997"
             id="use1184"
             width="100%"
             height="100%" />
        </g>
        <g
           style="fill:#000000;fill-opacity:1"
           id="g9934">
          <use
             xlink:href="#symbol6739"
             x="122.525"
             y="81.962997"
             id="use6388"
             width="100%"
             height="100%" />
        </g>
      </g>
    </g>
    <g
       transform="matrix(0.7,0,0,0.7,-298.14074,17.558848)"
       id="g9281">
      <g
         id="g8618">
        <g
           style="fill:#000000;fill-opacity:1"
           id="g5908">
          <use
             xlink:href="#symbol3383"
             x="91.925003"
             y="81.962997"
             id="use579"
             width="100%"
             height="100%" />
        </g>
        <g
           style="fill:#000000;fill-opacity:1"
           id="g739">
          <use
             xlink:href="#symbol6311"
             x="96.938004"
             y="83.457001"
             id="use6858"
             width="100%"
             height="100%" />
        </g>
      </g>
    </g>
    <g
       transform="matrix(0.7,0,0,0.7,-368.27999,-62.138206)"
       id="g9528">
      <g
         id="g1211">
        <g
           style="fill:#000000;fill-opacity:1"
           id="g6984">
          <use
             xlink:href="#symbol3675"
             x="91.925003"
             y="81.962997"
             id="use7438"
             width="100%"
             height="100%" />
        </g>
        <g
           style="fill:#000000;fill-opacity:1"
           id="g6346">
          <use
             xlink:href="#symbol2200"
             x="96.938004"
             y="83.457001"
             id="use3224"
             width="100%"
             height="100%" />
        </g>
      </g>
    </g>
    <g
       transform="matrix(0.7,0,0,0.7,-351.3966,17.543241)"
       id="g9790">
      <g
         id="g6736">
        <g
           style="fill:#000000;fill-opacity:1"
           id="g9896">
          <use
             xlink:href="#symbol6962"
             x="91.925003"
             y="81.962997"
             id="use2429"
             width="100%"
             height="100%" />
        </g>
        <g
           style="fill:#000000;fill-opacity:1"
           id="g391">
          <use
             xlink:href="#symbol8787"
             x="96.373001"
             y="83.457001"
             id="use3562"
             width="100%"
             height="100%" />
        </g>
      </g>
    </g>
    <g
       transform="matrix(0.7,0,0,0.7,-368.09674,-19.879202)"
       id="g10067">
      <g
         id="g8448">
        <g
           style="fill:#000000;fill-opacity:1"
           id="g2072">
          <use
             xlink:href="#symbol7806"
             x="91.925003"
             y="81.962997"
             id="use3668"
             width="100%"
             height="100%" />
        </g>
        <g
           style="fill:#000000;fill-opacity:1"
           id="g2576">
          <use
             xlink:href="#symbol9854"
             x="96.373001"
             y="83.457001"
             id="use7774"
             width="100%"
             height="100%" />
        </g>
      </g>
    </g>
    <g
       transform="matrix(0.7,0,0,0.7,-290.99162,-40.480873)"
       id="g10371">
      <g
         id="g5956">
        <g
           style="fill:#000000;fill-opacity:1"
           id="g5290">
          <use
             xlink:href="#symbol5362"
             x="91.925003"
             y="81.962997"
             id="use7998"
             width="100%"
             height="100%" />
        </g>
        <g
           style="fill:#000000;fill-opacity:1"
           id="g1224">
          <use
             xlink:href="#symbol4407"
             x="96.938004"
             y="83.457001"
             id="use3101"
             width="100%"
             height="100%" />
        </g>
        <g
           style="fill:#000000;fill-opacity:1"
           id="g4121">
          <use
             xlink:href="#symbol2286"
             x="103.94"
             y="81.962997"
             id="use8880"
             width="100%"
             height="100%" />
        </g>
        <g
           style="fill:#000000;fill-opacity:1"
           id="g8351">
          <use
             xlink:href="#symbol5731"
             x="113.903"
             y="81.962997"
             id="use7529"
             width="100%"
             height="100%" />
        </g>
        <g
           style="fill:#000000;fill-opacity:1"
           id="g4628">
          <use
             xlink:href="#symbol4407"
             x="118.35"
             y="83.457001"
             id="use1561"
             width="100%"
             height="100%" />
        </g>
      </g>
    </g>
    <g
       transform="matrix(0.7,0,0,0.7,-332.76489,-13.983678)"
       id="g10714">
      <g
         id="g4261">
        <g
           style="fill:#000000;fill-opacity:1"
           id="g7447">
          <use
             xlink:href="#symbol808"
             x="91.925003"
             y="81.962997"
             id="use8096"
             width="100%"
             height="100%" />
        </g>
        <g
           style="fill:#000000;fill-opacity:1"
           id="g95">
          <use
             xlink:href="#symbol2773"
             x="96.938004"
             y="83.457001"
             id="use5238"
             width="100%"
             height="100%" />
        </g>
        <g
           style="fill:#000000;fill-opacity:1"
           id="g3555">
          <use
             xlink:href="#symbol8370"
             x="104.168"
             y="81.962997"
             id="use3431"
             width="100%"
             height="100%" />
        </g>
        <g
           style="fill:#000000;fill-opacity:1"
           id="g8703">
          <use
             xlink:href="#symbol8523"
             x="114.13"
             y="81.962997"
             id="use9441"
             width="100%"
             height="100%" />
        </g>
        <g
           style="fill:#000000;fill-opacity:1"
           id="g2016">
          <use
             xlink:href="#symbol2773"
             x="118.578"
             y="83.457001"
             id="use7108"
             width="100%"
             height="100%" />
        </g>
      </g>
    </g>
  </g>
</svg>
