<?xml version="1.0" encoding="UTF-8" standalone="no"?>
<svg
   xmlns:dc="http://purl.org/dc/elements/1.1/"
   xmlns:cc="http://creativecommons.org/ns#"
   xmlns:rdf="http://www.w3.org/1999/02/22-rdf-syntax-ns#"
   xmlns:svg="http://www.w3.org/2000/svg"
   xmlns="http://www.w3.org/2000/svg"
   xmlns:xlink="http://www.w3.org/1999/xlink"
   xmlns:sodipodi="http://sodipodi.sourceforge.net/DTD/sodipodi-0.dtd"
   xmlns:inkscape="http://www.inkscape.org/namespaces/inkscape"
   width="119.50235mm"
   height="83.268234mm"
   viewBox="0 0 119.50235 83.268234"
   version="1.1"
   id="svg8"
   sodipodi:docname="07_hmatrix.svg"
   inkscape:version="1.0.2-2 (e86c870879, 2021-01-15)">
  <defs
     id="defs2">
    <g
       id="g1116">
      <symbol
         overflow="visible"
         id="symbol7470">
        <path
           style="stroke:none"
           d=""
           id="path145" />
      </symbol>
      <symbol
         overflow="visible"
         id="symbol6236">
        <path
           style="stroke:none"
           d="m 4.71875,-6.703125 c -0.109375,-0.25 -0.21875,-0.25 -0.390625,-0.25 -0.28125,0 -0.328125,0.078125 -0.390625,0.25 l -2.46875,6 C 1.40625,-0.546875 1.375,-0.46875 0.625,-0.46875 H 0.40625 V 0 c 0.375,-0.015625 0.859375,-0.03125 1.171875,-0.03125 0.390625,0 0.9375,0 1.3125,0.03125 V -0.46875 C 2.875,-0.46875 2,-0.46875 2,-0.59375 c 0,-0.015625 0.03125,-0.109375 0.046875,-0.125 l 0.5,-1.203125 H 5.21875 L 5.8125,-0.46875 H 4.859375 V 0 C 5.25,-0.03125 6.1875,-0.03125 6.625,-0.03125 c 0.390625,0 1.265625,0 1.625,0.03125 V -0.46875 H 7.28125 Z M 3.875,-5.15625 5.015625,-2.390625 h -2.28125 z m 0,0"
           id="path5070" />
      </symbol>
      <symbol
         overflow="visible"
         id="symbol6010">
        <path
           style="stroke:none"
           d=""
           id="path7616" />
      </symbol>
      <symbol
         overflow="visible"
         id="symbol2122">
        <path
           style="stroke:none"
           d="m 6.84375,-3.265625 c 0.15625,0 0.34375,0 0.34375,-0.1875 C 7.1875,-3.65625 7,-3.65625 6.859375,-3.65625 h -5.96875 c -0.140625,0 -0.328125,0 -0.328125,0.203125 0,0.1875 0.1875,0.1875 0.328125,0.1875 z m 0.015625,1.9375 c 0.140625,0 0.328125,0 0.328125,-0.203125 0,-0.1875 -0.1875,-0.1875 -0.34375,-0.1875 H 0.890625 c -0.140625,0 -0.328125,0 -0.328125,0.1875 0,0.203125 0.1875,0.203125 0.328125,0.203125 z m 0,0"
           id="path371" />
      </symbol>
      <symbol
         overflow="visible"
         id="symbol5229">
        <path
           style="stroke:none"
           d="m 4.578125,-3.1875 c 0,-0.796875 -0.046875,-1.59375 -0.390625,-2.328125 -0.453125,-0.96875 -1.28125,-1.125 -1.6875,-1.125 -0.609375,0 -1.328125,0.265625 -1.75,1.1875 -0.3125,0.6875 -0.359375,1.46875 -0.359375,2.265625 0,0.75 0.03125,1.640625 0.453125,2.40625 0.421875,0.796875 1.15625,1 1.640625,1 0.53125,0 1.296875,-0.203125 1.734375,-1.15625 0.3125,-0.6875 0.359375,-1.46875 0.359375,-2.25 z M 2.484375,0 C 2.09375,0 1.5,-0.25 1.328125,-1.203125 1.21875,-1.796875 1.21875,-2.71875 1.21875,-3.3125 c 0,-0.640625 0,-1.296875 0.078125,-1.828125 0.1875,-1.1875 0.9375,-1.28125 1.1875,-1.28125 0.328125,0 0.984375,0.1875 1.171875,1.171875 0.109375,0.5625 0.109375,1.3125 0.109375,1.9375 0,0.75 0,1.421875 -0.109375,2.0625 C 3.5,-0.296875 2.9375,0 2.484375,0 Z m 0,0"
           id="path1320" />
      </symbol>
      <symbol
         overflow="visible"
         id="symbol1347">
        <path
           style="stroke:none"
           d="m 2.9375,-6.375 c 0,-0.25 0,-0.265625 -0.234375,-0.265625 C 2.078125,-6 1.203125,-6 0.890625,-6 v 0.3125 c 0.203125,0 0.78125,0 1.296875,-0.265625 v 5.171875 c 0,0.359375 -0.03125,0.46875 -0.921875,0.46875 h -0.3125 V 0 c 0.34375,-0.03125 1.203125,-0.03125 1.609375,-0.03125 0.390625,0 1.265625,0 1.609375,0.03125 v -0.3125 h -0.3125 c -0.90625,0 -0.921875,-0.109375 -0.921875,-0.46875 z m 0,0"
           id="path6222" />
      </symbol>
      <symbol
         overflow="visible"
         id="symbol5938">
        <path
           style="stroke:none"
           d=""
           id="path9868" />
      </symbol>
      <symbol
         overflow="visible"
         id="symbol8099">
        <path
           style="stroke:none"
           d="m 3.25,17.546875 h 0.6875 v -17.25 h 2.625 v -0.6875 H 3.25 Z m 0,0"
           id="path9005" />
      </symbol>
      <symbol
         overflow="visible"
         id="symbol4696">
        <path
           style="stroke:none"
           d="m 3.25,5.984375 h 0.6875 v -6 H 3.25 Z m 0,0"
           id="path7315" />
      </symbol>
      <symbol
         overflow="visible"
         id="symbol4483">
        <path
           style="stroke:none"
           d="m 3.25,17.53125 h 3.3125 v -0.6875 h -2.625 v -17.25 H 3.25 Z m 0,0"
           id="path4252" />
      </symbol>
      <symbol
         overflow="visible"
         id="symbol6185">
        <path
           style="stroke:none"
           d="m 2.703125,17.546875 h 0.6875 v -17.9375 H 0.0625 v 0.6875 h 2.640625 z m 0,0"
           id="path7711" />
      </symbol>
      <symbol
         overflow="visible"
         id="symbol9510">
        <path
           style="stroke:none"
           d="m 2.703125,5.984375 h 0.6875 v -6 h -0.6875 z m 0,0"
           id="path8200" />
      </symbol>
      <symbol
         overflow="visible"
         id="symbol1721">
        <path
           style="stroke:none"
           d="M 2.703125,16.84375 H 0.0625 v 0.6875 h 3.328125 v -17.9375 h -0.6875 z m 0,0"
           id="path241" />
      </symbol>
      <symbol
         overflow="visible"
         id="symbol733">
        <path
           style="stroke:none"
           d=""
           id="path6832" />
      </symbol>
      <symbol
         overflow="visible"
         id="symbol6172">
        <path
           style="stroke:none"
           d="M 3.71875,-3.765625 C 3.53125,-4.140625 3.25,-4.40625 2.796875,-4.40625 c -1.15625,0 -2.390625,1.46875 -2.390625,2.921875 0,0.9375 0.546875,1.59375 1.3125,1.59375 0.203125,0 0.703125,-0.046875 1.296875,-0.75 0.078125,0.421875 0.4375,0.75 0.90625,0.75 0.359375,0 0.578125,-0.234375 0.75,-0.546875 0.15625,-0.359375 0.296875,-0.96875 0.296875,-0.984375 0,-0.109375 -0.09375,-0.109375 -0.125,-0.109375 -0.09375,0 -0.109375,0.046875 -0.140625,0.1875 -0.171875,0.640625 -0.34375,1.234375 -0.75,1.234375 -0.28125,0 -0.296875,-0.265625 -0.296875,-0.453125 0,-0.21875 0.015625,-0.3125 0.125,-0.75 C 3.890625,-1.71875 3.90625,-1.828125 4,-2.203125 L 4.359375,-3.59375 c 0.0625,-0.28125 0.0625,-0.296875 0.0625,-0.34375 0,-0.171875 -0.109375,-0.265625 -0.28125,-0.265625 -0.25,0 -0.390625,0.21875 -0.421875,0.4375 z M 3.078125,-1.1875 C 3.015625,-1 3.015625,-0.984375 2.875,-0.8125 2.4375,-0.265625 2.03125,-0.109375 1.75,-0.109375 c -0.5,0 -0.640625,-0.546875 -0.640625,-0.9375 0,-0.5 0.3125,-1.71875 0.546875,-2.1875 0.3125,-0.578125 0.75,-0.953125 1.15625,-0.953125 0.640625,0 0.78125,0.8125 0.78125,0.875 0,0.0625 -0.015625,0.125 -0.03125,0.171875 z m 0,0"
           id="path4271" />
      </symbol>
      <symbol
         overflow="visible"
         id="symbol6000">
        <path
           style="stroke:none"
           d=""
           id="path9157" />
      </symbol>
      <symbol
         overflow="visible"
         id="symbol8565">
        <path
           style="stroke:none"
           d="m 2.328125,-4.4375 c 0,-0.1875 0,-0.1875 -0.203125,-0.1875 -0.453125,0.4375 -1.078125,0.4375 -1.359375,0.4375 v 0.25 c 0.15625,0 0.625,0 1,-0.1875 v 3.546875 c 0,0.234375 0,0.328125 -0.6875,0.328125 H 0.8125 V 0 c 0.125,0 0.984375,-0.03125 1.234375,-0.03125 0.21875,0 1.09375,0.03125 1.25,0.03125 V -0.25 H 3.03125 c -0.703125,0 -0.703125,-0.09375 -0.703125,-0.328125 z m 0,0"
           id="path8280" />
      </symbol>
      <symbol
         overflow="visible"
         id="symbol3356">
        <path
           style="stroke:none"
           d="M 3.515625,-1.265625 H 3.28125 c -0.015625,0.15625 -0.09375,0.5625 -0.1875,0.625 C 3.046875,-0.59375 2.515625,-0.59375 2.40625,-0.59375 H 1.125 c 0.734375,-0.640625 0.984375,-0.84375 1.390625,-1.171875 0.515625,-0.40625 1,-0.84375 1,-1.5 0,-0.84375 -0.734375,-1.359375 -1.625,-1.359375 -0.859375,0 -1.453125,0.609375 -1.453125,1.25 0,0.34375 0.296875,0.390625 0.375,0.390625 0.15625,0 0.359375,-0.125 0.359375,-0.375 0,-0.125 -0.046875,-0.375 -0.40625,-0.375 C 0.984375,-4.21875 1.453125,-4.375 1.78125,-4.375 c 0.703125,0 1.0625,0.546875 1.0625,1.109375 0,0.609375 -0.4375,1.078125 -0.65625,1.328125 L 0.515625,-0.265625 C 0.4375,-0.203125 0.4375,-0.1875 0.4375,0 h 2.875 z m 0,0"
           id="path6410" />
      </symbol>
      <symbol
         overflow="visible"
         id="symbol4286">
        <path
           style="stroke:none"
           d="m 1.90625,-2.328125 c 0.546875,0 0.9375,0.375 0.9375,1.125 0,0.859375 -0.515625,1.125 -0.90625,1.125 -0.28125,0 -0.90625,-0.078125 -1.1875,-0.5 0.328125,0 0.40625,-0.234375 0.40625,-0.390625 0,-0.21875 -0.171875,-0.375 -0.390625,-0.375 -0.1875,0 -0.390625,0.125 -0.390625,0.40625 0,0.65625 0.71875,1.078125 1.5625,1.078125 0.96875,0 1.640625,-0.65625 1.640625,-1.34375 0,-0.546875 -0.4375,-1.09375 -1.203125,-1.25 0.71875,-0.265625 0.984375,-0.78125 0.984375,-1.21875 0,-0.546875 -0.625,-0.953125 -1.40625,-0.953125 -0.765625,0 -1.359375,0.375 -1.359375,0.9375 0,0.234375 0.15625,0.359375 0.359375,0.359375 0.21875,0 0.359375,-0.15625 0.359375,-0.34375 0,-0.203125 -0.140625,-0.359375 -0.359375,-0.375 0.25,-0.296875 0.71875,-0.375 0.984375,-0.375 0.3125,0 0.75,0.15625 0.75,0.75 0,0.296875 -0.09375,0.625 -0.28125,0.828125 -0.21875,0.265625 -0.421875,0.28125 -0.765625,0.3125 -0.171875,0.015625 -0.1875,0.015625 -0.21875,0.015625 -0.015625,0 -0.078125,0.015625 -0.078125,0.09375 0,0.09375 0.0625,0.09375 0.1875,0.09375 z m 0,0"
           id="path3993" />
      </symbol>
      <symbol
         overflow="visible"
         id="symbol2822">
        <path
           style="stroke:none"
           d="m 3.6875,-1.140625 v -0.25 H 2.90625 V -4.5 c 0,-0.140625 0,-0.203125 -0.140625,-0.203125 -0.09375,0 -0.125,0 -0.1875,0.109375 l -2.3125,3.203125 v 0.25 h 2.0625 v 0.5625 c 0,0.25 0,0.328125 -0.578125,0.328125 H 1.5625 V 0 C 1.921875,-0.015625 2.359375,-0.03125 2.609375,-0.03125 2.875,-0.03125 3.3125,-0.015625 3.671875,0 v -0.25 h -0.1875 C 2.90625,-0.25 2.90625,-0.328125 2.90625,-0.578125 v -0.5625 z M 2.375,-3.9375 v 2.546875 H 0.53125 Z m 0,0"
           id="path1972" />
      </symbol>
    </g>
    <marker
       inkscape:stockid="Arrow2Lend"
       orient="auto"
       refY="0"
       refX="0"
       id="marker2085"
       style="overflow:visible"
       inkscape:isstock="true">
      <path
         inkscape:connector-curvature="0"
         id="path1843"
         style="fill:#000000;fill-opacity:1;fill-rule:evenodd;stroke:#000000;stroke-width:0.625;stroke-linejoin:round;stroke-opacity:1"
         d="M 8.7185878,4.0337352 -2.2072895,0.01601326 8.7185884,-4.0017078 c -1.7454984,2.3720609 -1.7354408,5.6174519 -6e-7,8.035443 z"
         transform="matrix(-1.1,0,0,-1.1,-1.1,0)" />
    </marker>
    <marker
       inkscape:stockid="Arrow2Lend"
       orient="auto"
       refY="0"
       refX="0"
       id="marker2085-0"
       style="overflow:visible"
       inkscape:isstock="true">
      <path
         inkscape:connector-curvature="0"
         id="path1843-8"
         style="fill:#000000;fill-opacity:1;fill-rule:evenodd;stroke:#000000;stroke-width:0.625;stroke-linejoin:round;stroke-opacity:1"
         d="M 8.7185878,4.0337352 -2.2072895,0.01601326 8.7185884,-4.0017078 c -1.7454984,2.3720609 -1.7354408,5.6174519 -6e-7,8.035443 z"
         transform="matrix(-1.1,0,0,-1.1,-1.1,0)" />
    </marker>
  </defs>
  <sodipodi:namedview
     id="base"
     pagecolor="#ffffff"
     bordercolor="#666666"
     borderopacity="1.0"
     inkscape:pageopacity="0.0"
     inkscape:pageshadow="2"
     inkscape:zoom="1.979899"
     inkscape:cx="259.44537"
     inkscape:cy="120.31516"
     inkscape:document-units="mm"
     inkscape:current-layer="layer1"
     inkscape:document-rotation="0"
     showgrid="false"
     inkscape:window-width="2560"
     inkscape:window-height="1377"
     inkscape:window-x="-8"
     inkscape:window-y="-8"
     inkscape:window-maximized="1"
     fit-margin-top="0"
     fit-margin-left="0"
     fit-margin-right="0"
     fit-margin-bottom="0" />
  <metadata
     id="metadata5">
    <rdf:RDF>
      <cc:Work
         rdf:about="">
        <dc:format>image/svg+xml</dc:format>
        <dc:type
           rdf:resource="http://purl.org/dc/dcmitype/StillImage" />
        <dc:title></dc:title>
      </cc:Work>
    </rdf:RDF>
  </metadata>
  <g
     inkscape:label="Layer 1"
     inkscape:groupmode="layer"
     id="layer1"
     transform="translate(-79.897797,-146.13268)">
    <rect
       style="fill:#ffffff;fill-opacity:1;fill-rule:nonzero;stroke:none;stroke-width:0.25;stroke-linecap:round;stroke-linejoin:bevel;stroke-miterlimit:4;stroke-dasharray:none;stroke-dashoffset:0;stroke-opacity:1"
       id="rect3064-46"
       width="119.50235"
       height="83.268234"
       x="79.897797"
       y="146.13268"
       rx="2"
       ry="2" />
    <rect
       style="fill:#b3d2ff;fill-opacity:1;stroke:none;stroke-width:0.349999;stroke-linecap:round;stroke-linejoin:round;stroke-dasharray:0.7, 0.7"
       id="rect1278-9"
       width="16.802299"
       height="33.943222"
       x="166.74928"
       y="180.00603"
       rx="2"
       ry="2" />
    <rect
       style="fill:#ffe680;stroke:none;stroke-width:0.349999;stroke-linecap:round;stroke-linejoin:round;stroke-dasharray:0.7, 0.7"
       id="rect1278"
       width="54.902397"
       height="33.943222"
       x="109.73026"
       y="180.00603"
       rx="2"
       ry="2" />
    <g
       style="fill:#000000;fill-opacity:1"
       id="g9384"
       transform="translate(-8.6559886,105.83367)">
      <use
         xlink:href="#symbol6236"
         x="91.925003"
         y="98.401001"
         id="use5134"
         width="100%"
         height="100%" />
    </g>
    <g
       style="fill:#000000;fill-opacity:1"
       id="g4396"
       transform="translate(-8.6559886,105.83367)">
      <use
         xlink:href="#symbol2122"
         x="103.355"
         y="98.401001"
         id="use2174"
         width="100%"
         height="100%" />
    </g>
    <g
       style="fill:#000000;fill-opacity:1"
       id="g2799"
       transform="translate(-10.224589,105.83367)">
      <use
         xlink:href="#symbol8099"
         x="113.871"
         y="72.399002"
         id="use5249"
         width="100%"
         height="100%" />
    </g>
    <g
       style="fill:#000000;fill-opacity:1"
       id="g9350"
       transform="translate(-10.224589,105.83367)">
      <use
         xlink:href="#symbol4696"
         x="113.871"
         y="89.932999"
         id="use9371"
         width="100%"
         height="100%" />
    </g>
    <g
       style="fill:#000000;fill-opacity:1"
       id="g6044"
       transform="translate(-10.224589,105.83367)">
      <use
         xlink:href="#symbol4696"
         x="113.871"
         y="95.911003"
         id="use2733"
         width="100%"
         height="100%" />
    </g>
    <g
       style="fill:#000000;fill-opacity:1"
       id="g7716"
       transform="translate(-10.224589,105.83367)">
      <use
         xlink:href="#symbol4483"
         x="113.871"
         y="102.287"
         id="use6953"
         width="100%"
         height="100%" />
    </g>
    <g
       style="fill:#000000;fill-opacity:1"
       id="g700"
       transform="translate(-9.0717619,105.83367)">
      <use
         xlink:href="#symbol6172"
         x="120.512"
         y="80.369003"
         id="use1369"
         width="100%"
         height="100%" />
    </g>
    <g
       style="fill:#000000;fill-opacity:1"
       id="g3284"
       transform="translate(-9.0717619,105.83367)">
      <use
         xlink:href="#symbol8565"
         x="125.779"
         y="81.862999"
         id="use7530"
         width="100%"
         height="100%" />
      <use
         xlink:href="#symbol8565"
         x="129.75058"
         y="81.862999"
         id="use4757"
         width="100%"
         height="100%" />
    </g>
    <g
       style="fill:#000000;fill-opacity:1"
       id="g9902"
       transform="translate(-3.7800952,105.83367)">
      <use
         xlink:href="#symbol6172"
         x="134.21899"
         y="80.369003"
         id="use8805"
         width="100%"
         height="100%" />
    </g>
    <g
       style="fill:#000000;fill-opacity:1"
       id="g1324"
       transform="translate(-3.7800952,105.83367)">
      <use
         xlink:href="#symbol8565"
         x="139.485"
         y="81.862999"
         id="use1380"
         width="100%"
         height="100%" />
      <use
         xlink:href="#symbol3356"
         x="143.45657"
         y="81.862999"
         id="use2901"
         width="100%"
         height="100%" />
    </g>
    <g
       style="fill:#000000;fill-opacity:1"
       id="g5780"
       transform="translate(1.5115715,105.83367)">
      <use
         xlink:href="#symbol6172"
         x="147.92599"
         y="80.369003"
         id="use2132"
         width="100%"
         height="100%" />
    </g>
    <g
       style="fill:#000000;fill-opacity:1"
       id="g759"
       transform="translate(1.5115715,105.83367)">
      <use
         xlink:href="#symbol8565"
         x="153.192"
         y="81.862999"
         id="use1655"
         width="100%"
         height="100%" />
      <use
         xlink:href="#symbol4286"
         x="157.16357"
         y="81.862999"
         id="use693"
         width="100%"
         height="100%" />
    </g>
    <g
       style="fill:#000000;fill-opacity:1"
       id="g4484"
       transform="translate(6.8032382,105.83367)">
      <use
         xlink:href="#symbol6172"
         x="161.633"
         y="80.369003"
         id="use9860"
         width="100%"
         height="100%" />
    </g>
    <g
       style="fill:#000000;fill-opacity:1"
       id="g7113"
       transform="translate(6.8032382,105.83367)">
      <use
         xlink:href="#symbol8565"
         x="166.899"
         y="81.862999"
         id="use8263"
         width="100%"
         height="100%" />
      <use
         xlink:href="#symbol2822"
         x="170.87057"
         y="81.862999"
         id="use4676"
         width="100%"
         height="100%" />
    </g>
    <g
       style="fill:#000000;fill-opacity:1"
       id="g8419"
       transform="translate(-9.0717619,105.83367)">
      <use
         xlink:href="#symbol6172"
         x="120.512"
         y="92.323997"
         id="use5135"
         width="100%"
         height="100%" />
    </g>
    <g
       style="fill:#000000;fill-opacity:1"
       id="g490"
       transform="translate(-9.0717619,105.83367)">
      <use
         xlink:href="#symbol3356"
         x="125.779"
         y="93.819"
         id="use2055"
         width="100%"
         height="100%" />
      <use
         xlink:href="#symbol8565"
         x="129.75058"
         y="93.819"
         id="use7071"
         width="100%"
         height="100%" />
    </g>
    <g
       style="fill:#000000;fill-opacity:1"
       id="g549"
       transform="translate(-3.7800952,105.83367)">
      <use
         xlink:href="#symbol6172"
         x="134.21899"
         y="92.323997"
         id="use1820"
         width="100%"
         height="100%" />
    </g>
    <g
       style="fill:#000000;fill-opacity:1"
       id="g8133"
       transform="translate(-3.7800952,105.83367)">
      <use
         xlink:href="#symbol3356"
         x="139.485"
         y="93.819"
         id="use813"
         width="100%"
         height="100%" />
      <use
         xlink:href="#symbol3356"
         x="143.45657"
         y="93.819"
         id="use9785"
         width="100%"
         height="100%" />
    </g>
    <g
       style="fill:#000000;fill-opacity:1"
       id="g3825"
       transform="translate(1.5115715,105.83367)">
      <use
         xlink:href="#symbol6172"
         x="147.92599"
         y="92.323997"
         id="use3562"
         width="100%"
         height="100%" />
    </g>
    <g
       style="fill:#000000;fill-opacity:1"
       id="g7923"
       transform="translate(1.5115715,105.83367)">
      <use
         xlink:href="#symbol3356"
         x="153.192"
         y="93.819"
         id="use2996"
         width="100%"
         height="100%" />
      <use
         xlink:href="#symbol4286"
         x="157.16357"
         y="93.819"
         id="use4519"
         width="100%"
         height="100%" />
    </g>
    <g
       style="fill:#000000;fill-opacity:1"
       id="g4659"
       transform="translate(6.8032382,105.83367)">
      <use
         xlink:href="#symbol6172"
         x="161.633"
         y="92.323997"
         id="use4241"
         width="100%"
         height="100%" />
    </g>
    <g
       style="fill:#000000;fill-opacity:1"
       id="g139"
       transform="translate(6.8032382,105.83367)">
      <use
         xlink:href="#symbol3356"
         x="166.899"
         y="93.819"
         id="use4928"
         width="100%"
         height="100%" />
      <use
         xlink:href="#symbol2822"
         x="170.87057"
         y="93.819"
         id="use893"
         width="100%"
         height="100%" />
    </g>
    <g
       style="fill:#000000;fill-opacity:1"
       id="g686"
       transform="translate(-9.0717619,105.83367)">
      <use
         xlink:href="#symbol6172"
         x="120.512"
         y="104.279"
         id="use6830"
         width="100%"
         height="100%" />
    </g>
    <g
       style="fill:#000000;fill-opacity:1"
       id="g5417"
       transform="translate(-9.0717619,105.83367)">
      <use
         xlink:href="#symbol4286"
         x="125.779"
         y="105.774"
         id="use9004"
         width="100%"
         height="100%" />
      <use
         xlink:href="#symbol8565"
         x="129.75058"
         y="105.774"
         id="use2158"
         width="100%"
         height="100%" />
    </g>
    <g
       style="fill:#000000;fill-opacity:1"
       id="g7866"
       transform="translate(-3.7800952,105.83367)">
      <use
         xlink:href="#symbol6172"
         x="134.21899"
         y="104.279"
         id="use8344"
         width="100%"
         height="100%" />
    </g>
    <g
       style="fill:#000000;fill-opacity:1"
       id="g3373"
       transform="translate(-3.7800952,105.83367)">
      <use
         xlink:href="#symbol4286"
         x="139.485"
         y="105.774"
         id="use2296"
         width="100%"
         height="100%" />
      <use
         xlink:href="#symbol3356"
         x="143.45657"
         y="105.774"
         id="use6056"
         width="100%"
         height="100%" />
    </g>
    <g
       style="fill:#000000;fill-opacity:1"
       id="g8720"
       transform="translate(1.5115715,105.83367)">
      <use
         xlink:href="#symbol6172"
         x="147.92599"
         y="104.279"
         id="use8091"
         width="100%"
         height="100%" />
    </g>
    <g
       style="fill:#000000;fill-opacity:1"
       id="g5456"
       transform="translate(1.5115715,105.83367)">
      <use
         xlink:href="#symbol4286"
         x="153.192"
         y="105.774"
         id="use5199"
         width="100%"
         height="100%" />
      <use
         xlink:href="#symbol4286"
         x="157.16357"
         y="105.774"
         id="use2794"
         width="100%"
         height="100%" />
    </g>
    <g
       style="fill:#000000;fill-opacity:1"
       id="g2378"
       transform="translate(6.8032382,105.83367)">
      <use
         xlink:href="#symbol6172"
         x="161.633"
         y="104.279"
         id="use8194"
         width="100%"
         height="100%" />
    </g>
    <g
       style="fill:#000000;fill-opacity:1"
       id="g8190"
       transform="translate(6.8032382,105.83367)">
      <use
         xlink:href="#symbol4286"
         x="166.899"
         y="105.774"
         id="use3690"
         width="100%"
         height="100%" />
      <use
         xlink:href="#symbol2822"
         x="170.87057"
         y="105.774"
         id="use4876"
         width="100%"
         height="100%" />
    </g>
    <g
       style="fill:#000000;fill-opacity:1"
       id="g7881"
       transform="translate(-9.0717619,105.83367)">
      <use
         xlink:href="#symbol5229"
         x="124.875"
         y="116.235"
         id="use3134"
         width="100%"
         height="100%" />
    </g>
    <g
       style="fill:#000000;fill-opacity:1"
       id="g7014"
       transform="translate(-3.7800952,105.83367)">
      <use
         xlink:href="#symbol5229"
         x="138.58354"
         y="116.235"
         id="use9327"
         width="100%"
         height="100%" />
    </g>
    <g
       style="fill:#000000;fill-opacity:1"
       id="g9436"
       transform="translate(1.5115715,105.83367)">
      <use
         xlink:href="#symbol5229"
         x="152.29207"
         y="116.235"
         id="use9256"
         width="100%"
         height="100%" />
    </g>
    <g
       style="fill:#000000;fill-opacity:1"
       id="g8049"
       transform="translate(6.8032382,105.83367)">
      <use
         xlink:href="#symbol1347"
         x="165.99065"
         y="116.235"
         id="use6179"
         width="100%"
         height="100%" />
    </g>
    <g
       style="fill:#000000;fill-opacity:1"
       id="g9862"
       transform="translate(7.8615716,105.83367)">
      <use
         xlink:href="#symbol6185"
         x="175.339"
         y="72.399002"
         id="use2210"
         width="100%"
         height="100%" />
    </g>
    <g
       style="fill:#000000;fill-opacity:1"
       id="g3045"
       transform="translate(7.8615716,105.83367)">
      <use
         xlink:href="#symbol9510"
         x="175.339"
         y="89.932999"
         id="use4669"
         width="100%"
         height="100%" />
    </g>
    <g
       style="fill:#000000;fill-opacity:1"
       id="g2227"
       transform="translate(7.8615716,105.83367)">
      <use
         xlink:href="#symbol9510"
         x="175.339"
         y="95.911003"
         id="use6090"
         width="100%"
         height="100%" />
    </g>
    <g
       style="fill:#000000;fill-opacity:1"
       id="g8178"
       transform="translate(7.8615716,105.83367)">
      <use
         xlink:href="#symbol1721"
         x="175.339"
         y="102.287"
         id="use6911"
         width="100%"
         height="100%" />
    </g>
    <text
       xml:space="preserve"
       style="font-style:normal;font-variant:normal;font-weight:bold;font-stretch:normal;font-size:2.11667px;line-height:100%;font-family:'Liberation Sans';-inkscape-font-specification:'Liberation Sans Bold';text-align:center;letter-spacing:0px;word-spacing:0px;text-anchor:middle;fill:#000000;fill-opacity:1;stroke:none;stroke-width:0.264583px;stroke-linecap:butt;stroke-linejoin:miter;stroke-opacity:1"
       x="114.81061"
       y="154.48396"
       id="text1737-9"><tspan
         sodipodi:role="line"
         x="114.81061"
         y="154.48396"
         style="font-style:normal;font-variant:normal;font-weight:bold;font-stretch:normal;font-size:7.76111px;line-height:100%;font-family:'Liberation Sans';-inkscape-font-specification:'Liberation Sans Bold';text-align:center;text-anchor:middle;fill:#000000;stroke-width:0.264583px"
         id="tspan2105">Transformação</tspan><tspan
         sodipodi:role="line"
         x="114.81061"
         y="162.24507"
         style="font-style:normal;font-variant:normal;font-weight:bold;font-stretch:normal;font-size:7.76111px;line-height:100%;font-family:'Liberation Sans';-inkscape-font-specification:'Liberation Sans Bold';text-align:center;text-anchor:middle;fill:#000000;stroke-width:0.264583px"
         id="tspan2243">linear em 3D</tspan></text>
    <path
       style="fill:none;fill-rule:evenodd;stroke:#000000;stroke-width:0.353;stroke-linecap:butt;stroke-linejoin:miter;stroke-miterlimit:4;stroke-dasharray:none;stroke-opacity:1;marker-end:url(#marker2085)"
       d="m 123.73609,166.18926 8.01809,9.62746"
       id="path1820"
       inkscape:connector-curvature="0"
       sodipodi:nodetypes="cc" />
    <text
       xml:space="preserve"
       style="font-style:normal;font-variant:normal;font-weight:bold;font-stretch:normal;font-size:2.11667px;line-height:100%;font-family:'Liberation Sans';-inkscape-font-specification:'Liberation Sans Bold';text-align:center;letter-spacing:0px;word-spacing:0px;text-anchor:middle;fill:#000000;fill-opacity:1;stroke:none;stroke-width:0.264583px;stroke-linecap:butt;stroke-linejoin:miter;stroke-opacity:1"
       x="175.48598"
       y="158.10504"
       id="text1737-9-1"><tspan
         sodipodi:role="line"
         x="175.48598"
         y="158.10504"
         style="font-style:normal;font-variant:normal;font-weight:bold;font-stretch:normal;font-size:7.76111px;line-height:100%;font-family:'Liberation Sans';-inkscape-font-specification:'Liberation Sans Bold';text-align:center;text-anchor:middle;fill:#000000;stroke-width:0.264583px"
         id="tspan2105-9">Translação</tspan></text>
    <path
       style="fill:none;fill-rule:evenodd;stroke:#000000;stroke-width:0.353;stroke-linecap:butt;stroke-linejoin:miter;stroke-miterlimit:4;stroke-dasharray:none;stroke-opacity:1;marker-end:url(#marker2085-0)"
       d="m 175.59446,163.01426 0.0806,12.80246"
       id="path1820-6"
       inkscape:connector-curvature="0"
       sodipodi:nodetypes="cc" />
  </g>
</svg>
